<?xml version="1.0" encoding="UTF-8"?>
<svg id="Layer_2" data-name="Layer 2" xmlns="http://www.w3.org/2000/svg" viewBox="0 0 128.39 131.65">
  <defs>
    <style>
      .cls-1 {
        fill: #32a1da;
      }
    </style>
  </defs>
  <g id="Layer_1-2" data-name="Layer 1">
    <g>
      <path class="cls-1" d="M64.2,18.19l.02-.05,39.33,89.6-24.6-11.53v35.44c-1.99-.04-8.44-.06-14.75-.06-6.31,0-12.75.02-14.75.06v-35.44s-24.6,11.53-24.6,11.53L64.18,18.14l.02.05Z"/>
      <path class="cls-1" d="M1.04,70.22c2.06-7.72,6.6-13.87,13.53-17.88,7.8-4.52,15.92-5.46,24.27-3l1.04-2.49c-1.21-1.82-2.23-3.76-3.01-5.88-1.96-5.31-2.5-10.71-1.52-16.26,1.38-7.8,5.19-14.19,11.59-18.86C52.15,2.04,57.94.07,64.18,0h0s0,0,.01,0S64.21,0,64.21,0h0c6.24.07,12.03,2.04,17.24,5.85,6.39,4.68,10.21,11.07,11.59,18.86.98,5.55.44,10.94-1.52,16.26-.78,2.11-1.8,4.06-3.01,5.88l1.04,2.49c8.35-2.46,16.48-1.52,24.27,3,6.93,4.02,11.47,10.16,13.53,17.88,4.21,15.77-4.9,30.86-18.58,35.83-.46-.89-.95-1.77-1.38-2.69-.43-.92-.81-1.87-1.23-2.85L64.22,5.18s0,.01,0,.01v.06s0-.02-.01-.03c0,.01-.01.03-.01.03v-.06s0-.01,0-.01L22.23,100.51c-.42.98-.79,1.93-1.23,2.85-.43.91-.92,1.8-1.38,2.69C5.94,101.08-3.18,85.99,1.04,70.22Z"/>
    </g>
  </g>
</svg>