<?xml version="1.0" encoding="UTF-8"?>
<svg id="Layer_2" data-name="Layer 2" xmlns="http://www.w3.org/2000/svg" viewBox="0 0 121.85 129.77">
  <defs>
    <style>
      .cls-1 {
        fill: #32a1da;
      }
    </style>
  </defs>
  <g id="Layer_1-2" data-name="Layer 1">
    <g>
      <polygon class="cls-1" points="60.45 118.51 107.13 61.43 60.73 129.77 60.7 129.72 60.67 129.77 12.31 59.54 60.45 118.51"/>
      <path class="cls-1" d="M111.73,48.2l-51.26,63.07L5.8,42.66l-1.48-2.12.43.13c-1.86-2.54-3.25-5.36-4.03-8.38C.25,30.46,0,28.55,0,26.6c0-1.46.14-2.89.4-4.28.27-1.39.66-2.75,1.17-4.07C5.68,7.65,17.39,0,31.19,0c13.93,0,25.73,7.79,29.73,18.54C64.93,7.79,76.72,0,90.65,0c17.23,0,31.19,11.91,31.19,26.6,0,5.73-2.15,11.03-5.77,15.37l-4.35,6.24Z"/>
    </g>
  </g>
</svg>