<?xml version="1.0" encoding="UTF-8"?>
<svg id="Layer_2" data-name="Layer 2" xmlns="http://www.w3.org/2000/svg" viewBox="0 0 126 132.02">
  <defs>
    <style>
      .cls-1 {
        fill: #32a1da;
      }
    </style>
  </defs>
  <g id="Layer_1-2" data-name="Layer 1">
    <g>
      <g>
        <path class="cls-1" d="M1.04,62.02c2.06-8.68,7.59-14.06,13.52-20.11C22.8,33.5,62.54,0,62.54,0L22.21,96.08c-.42,1.1-.79,2.17-1.22,3.21-.43,1.03-.92,2.02-1.38,3.02C5.93,96.71-3.18,79.75,1.04,62.02Z"/>
        <path class="cls-1" d="M124.97,62.25c-2.06-8.68-7.59-14.06-13.52-20.11C103.2,33.74,63.47.24,63.47.24l40.33,96.08c.42,1.1.79,2.17,1.22,3.21.43,1.03.92,2.02,1.38,3.02,13.67-5.59,22.78-22.56,18.57-40.29Z"/>
      </g>
      <path class="cls-1" d="M32.79,105.19h-9.28c13.08-34.57,26.19-57.03,39.29-91.65,12.91,34.69,25.71,57.19,38.59,91.81l-9.16-.06-15.8-13.39v14.64c0,2.26,0,6.07.17,9.7v15.77c-8.8-.01-19.7-.01-28.49,0v-22.49s-.04,0-.04,0c0-1.14,0-2.16,0-2.98v-14.32s-15.3,12.96-15.3,12.96Z"/>
    </g>
  </g>
</svg>