<?xml version="1.0" encoding="UTF-8"?>
<svg id="Layer_2" data-name="Layer 2" xmlns="http://www.w3.org/2000/svg" viewBox="0 0 1092.89 1089.05">
  <defs>
    <style>
      .cls-1 {
        fill: #000;
        stroke-width: 0px;
      }
    </style>
  </defs>
  <g id="Layer_1-2" data-name="Layer 1">
    <g>
      <g>
        <path class="cls-1" d="M914.12,465.04c15.03-.04,30.07-.02,45.1-.02,10.4,0,20.79.02,31.19-.02,1.72,0,3.52.36,5.66-1.04-1.45-9.63-3.53-18.97-5.77-28.27-7.06-29.33-16.95-57.68-29.65-85.04-10.67-22.97-23.17-44.9-37.53-65.77-.61-.89-1.39-1.67-2.15-2.56-1.92.72-2.95,2.22-4.16,3.43-17.78,17.74-35.53,35.5-53.28,53.26-1.02,1.02-2,2.08-3.08,3.03-.67.59-1.49,1.01-2.52,1.7-1.61-2.36-3.04-4.45-4.45-6.56-20.26-30.24-44.47-56.91-72.57-80.05-9.14-7.53-18.64-14.59-28.44-21.23-1.14-.77-2.65-1.25-2.99-3.27,1.06-1.12,2.23-2.41,3.46-3.64,11.98-12,23.97-23.98,35.96-35.97,6.45-6.45,12.9-12.88,19.33-19.35.86-.87,2.09-1.56,2-3.51-1.2-.85-2.6-1.88-4.02-2.87-38.14-26.45-79.34-46.64-123.62-60.53-16.5-5.17-33.23-9.41-50.22-12.61-1.54-.29-3.08-.97-4.71-.03-.97,1.76-.61,3.71-.61,5.6-.03,24.79-.02,49.58-.02,74.38,0,1.6.03,3.2-.07,4.8-.05.75-.38,1.48-.55,2.11-.54.14-.86.32-1.15.28-1.58-.24-3.16-.49-4.72-.81-20.73-4.24-41.66-6.79-62.81-7.29-9.43-.22-18.88-.28-28.3.16-9.73.45-19.46,1.35-29.14,2.47-8.09.93-16.12,2.46-24.17,3.71-1.39.22-2.81.71-4.35-.3-.87-1.81-.55-3.92-.55-5.96-.02-24.31-.01-48.62-.02-72.94,0-1.6.05-3.2-.06-4.8-.06-.9-.43-1.77-.67-2.73-1.48,0-2.75-.12-3.98.03-1.9.23-3.78.63-5.67.99-53.48,10.2-103.63,29.18-150.28,57.29-7.39,4.46-14.58,9.26-21.82,13.96-1.29.84-2.87,1.48-3.32,3.4.75,1.77,2.33,2.93,3.66,4.26,16.27,16.3,32.56,32.58,48.85,48.87,2.26,2.26,4.54,4.51,6.76,6.81.62.65,1.07,1.46,1.62,2.23-1.39,1.82-3.16,2.64-4.73,3.69-26.11,17.35-49.7,37.62-70.69,60.91-11.48,12.74-22.02,26.19-31.67,40.35-.97,1.42-1.64,3.14-3.55,3.99-.71-.57-1.49-1.1-2.17-1.75-1.61-1.55-3.18-3.15-4.76-4.74-17.08-17.08-34.15-34.16-51.25-51.22-1.21-1.21-2.18-2.79-4.27-3.3-.76.94-1.6,1.87-2.32,2.9-11.39,16.27-21.67,33.21-30.84,50.83-16.39,31.49-28.98,64.44-37.55,98.89-2.47,9.92-4.35,19.99-6.44,30.01-.21,1.02-.03,2.12-.03,3.29,2.02.78,3.95.55,5.84.55,24.63.01,49.26,0,73.9.01,1.6,0,3.21-.05,4.8.07.88.07,1.74.46,2.76.76-.26,4.59-1.51,8.74-2.12,12.97-.62,4.27-1.41,8.52-2,12.79-.59,4.28-1.07,8.57-1.5,12.86-.43,4.29-.79,8.6-1.09,12.9-.3,4.3-.58,8.61-.73,12.93-.14,4.31-.14,8.64-.14,12.95,0,4.32,0,8.64.15,12.95.15,4.31.44,8.62.74,12.93.31,4.3.65,8.61,1.09,12.9.44,4.29.94,8.58,1.53,12.86.59,4.27,1.42,8.52,1.99,12.79.57,4.23,2,8.34,2.01,12.58-2.2,1.34-4.33.9-6.36.9-24.63.03-49.26.02-73.9.02-1.6,0-3.2-.03-4.8.07-.75.05-1.49.37-2.44.63.13,1.42.14,2.69.39,3.91,1.45,7.21,2.8,14.44,4.47,21.61,6.89,29.7,16.73,58.39,29.43,86.11,11.56,25.22,25.34,49.17,41.27,71.89.61.87,1.42,1.59,2.35,2.6,1.37-1.26,2.56-2.29,3.67-3.4,8.95-8.92,17.88-17.86,26.81-26.8,9.39-9.39,18.76-18.79,28.18-28.15,1.09-1.08,1.92-2.59,3.89-2.82,1.78,1.55,2.9,3.7,4.24,5.65,18.5,26.91,40.16,50.96,64.98,72.19,11.93,10.2,24.48,19.57,37.55,28.25,1.16.77,2.64,1.24,3.14,2.96-.78,1.73-2.35,2.89-3.68,4.23-17.97,18-35.96,35.97-53.93,53.97-1.22,1.22-2.7,2.25-3.34,3.84.21.45.26.82.47,1,.86.71,1.75,1.39,2.67,2.02,14.26,9.78,29.05,18.7,44.34,26.76,35.85,18.91,73.57,32.79,113.13,41.63,6.55,1.46,13.16,2.7,19.75,3.97,1.67.32,3.43.88,5.25-.35.12-.71.34-1.48.37-2.25.07-1.6.05-3.2.05-4.8,0-24.31,0-48.62.02-72.94,0-2.04-.34-4.15.56-5.98.46-.22.75-.49,1.02-.47,1.27.08,2.54.17,3.79.39,22.23,4.07,44.62,6.46,67.24,6.3,10.07-.07,20.14-.12,30.2-.95,10.53-.87,21.01-2.02,31.42-3.73,5.36-.88,10.69-2,16.04-2.93,1.65-.29,3.35-1.05,5.38-.06.06,1.93.17,3.82.17,5.71.01,15.67,0,31.35,0,47.02,0,9.6-.02,19.19.02,28.79,0,1.72-.36,3.53.91,5.45,1.07-.06,2.33.01,3.54-.22,43.66-8.31,85.23-22.68,124.7-43.13,19.41-10.05,48.45-28.06,54.15-33.68-.47-1.77-2.01-2.76-3.22-3.97-17.74-17.78-35.5-35.53-53.26-53.28-1.02-1.02-2.08-1.99-3.03-3.07-.58-.66-1-1.48-1.66-2.49,1.7-1.18,3.12-2.18,4.55-3.16,30.35-20.69,57.08-45.3,80.18-73.85,7.65-9.46,14.79-19.29,21.52-29.42.85-1.28,1.32-2.98,3.42-3.48,1.06.99,2.25,2.04,3.37,3.15,4.54,4.51,9.05,9.04,13.58,13.57,13.69,13.68,27.36,27.38,41.07,41.04,1.21,1.21,2.2,2.76,3.92,3.25.41-.25.76-.36.94-.59,1.05-1.41,2.1-2.82,3.08-4.27,25.54-37.77,44.98-78.45,58.33-122.05,4.97-16.23,8.98-32.69,12.09-49.37.34-1.81,1.18-3.67.34-5.7-1.83-.88-3.77-.58-5.65-.58-24.63-.02-49.26-.01-73.9-.02-1.6,0-3.2.05-4.8-.06-.9-.06-1.77-.42-2.94-.71.58-5.92,2.1-11.48,2.85-17.14.76-5.7,1.77-11.38,2.43-17.09.65-5.72,1.09-11.46,1.46-17.2.38-5.74.66-11.49.8-17.24.13-5.75.13-11.52,0-17.27-.13-5.75-.42-11.5-.8-17.24-.38-5.74-.81-11.49-1.47-17.2-.66-5.71-1.66-11.39-2.43-17.09-.76-5.66-2.29-11.21-2.82-16.85,1.98-1.46,3.96-1.03,5.82-1.04ZM656.79,185.59c5-12.99,15.73-37.72,18.02-41.51,10.56,1.44,57.35,21.17,66.83,28.17-.15.78-.18,1.74-.53,2.57-5.5,13.11-11.02,26.2-16.57,39.28-.43,1-1.05,1.92-1.59,2.89-1.9.29-3.17-.82-4.56-1.5-7.48-3.61-14.89-7.35-22.43-10.82-11.47-5.29-23.31-9.65-35.28-13.64-1.62-.54-3.51-.63-4.77-2.42.27-.93.49-2.02.88-3.03ZM357.56,167.8c11.43-5.75,23.06-11.06,35.01-15.63,7.61-2.91,15.32-5.55,23.01-8.28,1.48-.53,3.03-.87,4.73-1.36.61.92,1.25,1.62,1.6,2.46,5.67,13.57,11.31,27.15,16.94,40.73.24.57.3,1.22.56,2.34-3.96,1.88-7.88,2.71-11.61,4.06-3.76,1.36-7.55,2.61-11.3,4.01-3.89,1.45-7.76,2.98-11.6,4.56-3.69,1.52-7.36,3.11-11,4.75-3.64,1.64-7.21,3.45-10.86,5.07-3.61,1.61-6.88,3.99-10.96,5.04-.47-.77-.98-1.39-1.27-2.1-5.86-14.16-11.89-28.25-17.48-42.23.86-2.26,2.72-2.67,4.24-3.43ZM147,413.86c-.63-1.83.38-3.41.92-5.03,4.72-14.09,10.22-27.88,16.49-41.35,2.49-5.35,5.13-10.64,7.75-15.93.77-1.55,1.72-3,2.69-4.67,1.3.32,2.4.45,3.38.87,12.95,5.44,25.9,10.9,38.83,16.4.99.42,1.86,1.1,2.83,1.69-.02,2.22-1.23,3.78-2.1,5.44-6.95,13.32-13.17,26.97-18.42,41.05-2.12,5.68-4.03,11.44-6.04,17.17-.42,1.19-.57,2.53-1.87,3.19-3.89-1-40.97-16.68-44.47-18.82ZM217.98,722.41c-14.74,6.82-38.71,16.6-42.45,17.35-3.54-4.16-11.95-21.48-19.52-40.39-3.42-8.55-6.76-17.15-9.31-26.07,1.23-.77,1.98-1.35,2.82-1.74,10.27-4.81,38.39-16.39,42.08-17.33,1.73.96,1.78,2.89,2.38,4.47,3.07,8.22,5.96,16.52,9.16,24.69,4.37,11.16,9.65,21.92,15.17,32.55.79,1.52,1.97,2.92,1.96,5.06-.71.44-1.45,1.02-2.28,1.4ZM435.38,899.23c-5.83,13.85-11.69,27.7-17.57,41.53-.23.55-.74.98-1.06,1.38-9.82-.97-60.61-22.71-66.79-28.27.24-.93.38-2.04.79-3.03,5.38-12.83,10.78-25.65,16.22-38.46.48-1.14,1.22-2.17,1.95-3.45,4.76,1.62,8.77,4.28,13.08,6.28,4.35,2.02,8.65,4.17,13.03,6.12,4.53,2.02,9.1,3.94,13.7,5.78,4.45,1.78,8.99,3.35,13.46,5.09,4.43,1.73,9.17,2.66,13.48,5.01-.11.8-.07,1.47-.3,2.02ZM714.92,927.49c-17.61,7.81-34.8,14.05-40.65,14.9-.44-.7-1.05-1.44-1.4-2.29-5.43-12.98-10.84-25.97-16.22-38.97-.47-1.14-.7-2.39-1.11-3.82,1.38-.62,2.48-1.24,3.66-1.62,20.59-6.67,40.45-15.06,59.59-25.16,1.09-.58,2.29-.95,3.62-1.5.6,1.02,1.15,1.78,1.54,2.63,5.22,11.27,16.08,38.16,17.23,42.87-8.49,5.07-17.39,9.02-26.27,12.95ZM545.86,886.47c-189.3.47-343.52-153.83-343.49-343.42.02-189.25,154.01-343.5,343.64-343.38,189.81.12,343.44,154.68,343.25,343.76-.19,189.36-154.3,343.47-343.4,343.04ZM939.43,669.72c1.75.74,3.47,1.56,4.94,2.23.89,2.03-.01,3.48-.5,4.96-4.27,12.9-9.2,25.53-14.84,37.89-3.12,6.82-6.47,13.54-9.76,20.28-.69,1.42-1.56,2.74-2.44,4.29-1.26-.29-2.37-.38-3.34-.79-12.95-5.44-25.89-10.92-38.82-16.42-1.01-.43-1.92-1.08-3.25-1.84,1.88-4.95,4.42-9.01,6.45-13.32,2.03-4.34,4.17-8.63,6.13-13,1.96-4.37,3.83-8.78,5.61-13.23,1.78-4.45,3.43-8.94,5.06-13.45,1.62-4.48,3.15-9,4.7-13.43,1.99-.68,3.36.32,4.78.92,11.77,4.95,23.53,9.93,35.29,14.92ZM902.28,433.05c-.57.24-1.22.28-1.74.39-1.61-.84-1.68-2.38-2.16-3.69-3.3-8.99-6.44-18.04-9.91-26.97-4.17-10.72-9.22-21.05-14.51-31.27-.79-1.53-1.98-2.93-1.9-4.79,3.14-2.29,21.69-10.46,41.15-18.1,1.15-.45,2.38-.7,3.79-1.1,3.29,4.81,5.5,9.94,7.86,14.96,9.85,20.97,18.85,44.13,20.21,51.86-.68.48-1.38,1.16-2.21,1.52-13.51,5.75-27.05,11.47-40.58,17.17Z"/>
        <path class="cls-1" d="M0,535.69h0c0,305.61,247.75,553.36,553.36,553.36h7.68c293.73,0,531.85-238.12,531.85-531.85h0C1092.89,249.47,843.42,0,535.69,0h0C239.84,0,0,239.84,0,535.69ZM1042.48,593.14c-1.44,13.68-3.31,27.28-5.77,40.81-5.65,31.07-14.15,61.34-25.78,90.69-38.63,97.43-101.51,175.44-188.41,233.96-47.51,32-99.24,54.74-154.83,68.69-17.07,4.28-34.31,7.66-51.72,10.13-8.86,1.25-17.77,2.2-26.68,2.99-7.48.67-15,.89-22.5,1.39-1.73.11-3.44.55-5.16.84h-31.67c-2.2-.31-4.39-.83-6.59-.91-9.27-.32-18.51-1.08-27.74-1.98-13.69-1.33-27.28-3.3-40.81-5.77-31.07-5.67-61.32-14.21-90.69-25.81-87.67-34.64-160-89.59-216.96-164.63-38.74-51.03-66.32-107.64-83.18-169.44-6.53-23.93-11.21-48.24-13.95-72.91-1.22-10.97-2.42-21.94-2.69-32.97-.27-11.19-.28-22.39-.42-33.58-.18-15.38.99-30.69,2.62-45.95,1.67-15.57,4.15-31.04,7.29-46.39,7.15-34.89,17.87-68.64,32.37-101.16,34.21-76.74,84.52-140.95,150.8-192.54,52.9-41.18,111.84-70.39,176.62-87.74,26.3-7.04,53-11.83,80.1-14.49,13.38-1.31,26.79-2,40.21-2.38,15.52-.44,31.01.31,46.5,1.43,15.96,1.15,31.8,3.15,47.57,5.82,29.23,4.96,57.76,12.55,85.6,22.7,129.86,47.38,234.45,146.58,288.69,273.81,13.65,32.01,23.81,65.1,30.41,99.28,2.43,12.56,4.44,25.17,5.86,37.89,1.36,12.08,2.63,24.16,2.63,36.33,0,3.68.18,7.36.21,11.03.18,20.31.19,40.61-1.94,60.86Z"/>
      </g>
      <path class="cls-1" d="M545.82,220.76c-177.42,0-322.18,144.43-322.37,321.99-.19,177.85,144.55,323.03,322.11,322.61,177.62.68,322.54-144.28,322.61-322.11.07-177.9-144.85-322.49-322.35-322.49ZM603.28,659.08v149.02c-8.38-.18-35.48-.26-62.01-.26-26.52,0-53.62.08-62.01.26v-149.02l-103.43,48.47,165.35-376.71.09.2.09-.2,165.35,376.71-103.43-48.47ZM728.69,700.44c-1.93-3.72-4-7.44-5.81-11.29-1.82-3.87-3.39-7.87-5.15-11.99l-176.36-400.82s-.02.05-.03.06v.27s-.03-.07-.06-.14c-.03.06-.05.11-.06.14v-.27s-.03-.06-.03-.06l-176.36,400.82c-1.76,4.12-3.33,8.11-5.15,11.99-1.81,3.85-3.88,7.57-5.81,11.29-57.53-20.9-95.86-84.34-78.14-150.64,8.68-32.46,27.75-58.29,56.89-75.18,32.79-18.99,66.95-22.94,102.05-12.61l4.36-10.45c-5.09-7.66-9.36-15.83-12.64-24.72-8.24-22.34-10.53-45.02-6.39-68.34,5.82-32.79,21.84-59.64,48.72-79.31,21.92-16.03,46.26-24.31,72.49-24.6h0s.04,0,.06,0,.04,0,.06,0h0c26.23.3,50.57,8.57,72.49,24.61,26.88,19.67,42.91,46.52,48.72,79.31,4.14,23.32,1.85,46-6.39,68.34-3.28,8.89-7.55,17.06-12.64,24.72l4.36,10.45c35.11-10.32,69.27-6.38,102.05,12.61,29.15,16.88,48.21,42.71,56.89,75.18,17.72,66.3-20.6,129.73-78.14,150.64Z"/>
    </g>
  </g>
</svg>