<?xml version="1.0" encoding="utf-8"?>
<!-- Generator: Adobe Illustrator 27.3.1, SVG Export Plug-In . SVG Version: 6.00 Build 0)  -->
<svg version="1.1" id="Layer_1" xmlns="http://www.w3.org/2000/svg" xmlns:xlink="http://www.w3.org/1999/xlink" x="0px" y="0px"
	 viewBox="0 0 300 300" style="enable-background:new 0 0 300 300;" xml:space="preserve">
<image style="overflow:visible;" width="150" height="150" xlink:href="../../../../I94westchamber/public/images/1-logo-gray.png"  transform="matrix(1 0 0 1 692.8354 80.3797)">
</image>
<g>
	<path d="M122.7,242c-0.6,0-1.2,0-1.8,0c-0.1-2.2-0.1-4.5-0.2-6.7c0-1.3,0.2-2.3,1.3-3.3c1.7-1.4,1.5-4.1-0.4-5.2
		c-1.2-0.7-1.3-1.6-1.3-2.7c-0.1-2.5-1.5-3.4-3.8-2.3c-1.1,0.5-2.1,1.2-3.1,1.8c-10.6,5.8-21.9,8.9-34,7.3
		c-4.9-0.6-9.5-2.2-12.9-6.1c-2.2-2.5-3.4-5.3-3-8.6c0.2-1.9,1.1-2.3,2.5-1.3c7.7,5.6,16.6,7.1,25.7,7.2c6.1,0.1,12.2-0.8,18.1-3.1
		c-0.3-0.3-0.4-0.5-0.6-0.6c-6.1-2.6-11.7-6.1-16.7-10.4c-0.7-0.6-1.7-0.8-2.6-0.9c-7.9-0.3-15.6-1.8-22.9-4.8
		c-14.3-5.9-26.4-14.1-30.4-30.4c0-4.5,0-9,0-13.5c2.5-9.8,8.2-17.4,16.4-23.3c3.7-2.6,7.7-4.5,12.4-4.9c3.3-0.3,5.8,0.9,6.9,3.1
		c1.4,2.9,0.3,9.2-2,11.1c-7.3-3.6-18.2,0.7-24.3,9.4c2.7-1.3,5.4-2.8,8.3-3.9c8-3,16.3-3.8,24.7-3.3c1.9,0.1,2.9-0.5,4.1-2
		c2.5-3.1,5.3-5.9,8-8.7c0.4-0.4,1.1-0.5,1.3-0.6c-1.8-1.6-3-2.7-4.2-3.8c0.2-0.3,0.4-0.6,0.5-0.8c3.3,2.6,7.1,2.5,10.9,2.6
		c11.4,0.2,22.7,0.1,34.1,0.5c4.7,0.2,9.4,0.9,13.9,2.2c7.5,2.2,13.8,6.4,17.5,13.4c5,9.6,2.8,18.7-2.8,27.3c-1,1.5-2.2,3-3.4,4.6
		c4.7,2.8,9.3,5.5,13.9,8.1c0.5,0.3,1.6,0,2.2-0.3c1.8-0.9,3.5-2.2,5.3-2.8c2.4-0.8,2.9-2.4,3.2-4.5c1.3-11.3-1.4-21.7-7.7-31.1
		c-2.3-3.3-4.9-6.8-8.2-9.1c-9.8-6.6-21.1-9.6-32.7-10.5c-8.9-0.7-17.9-0.9-26.9-0.7c-4.9,0.1-8.6-1-11.6-4.9
		c-1.9-2.4-4.3-4.3-6.4-6.6c-0.4-0.5-0.5-1.3-0.7-1.9c0.6,0,1.3-0.1,1.9,0c1.8,0.5,3.6,1.1,5.3,1.7c7,2.2,14,2.6,21.2,1.3
		c0.1-0.3,0.2-0.5,0.2-0.7c-0.2-13.8-0.4-27.5-0.7-41.3c0-0.6-0.9-1.5-1.5-1.7c-3.7-0.8-7.5-1.6-11.2-2c-7.1-0.7-14.3-1.5-21.4,0.2
		c-5.2,1.3-10,3.1-13.2,7.8c-1.2,1.7-1.1,3.3-0.2,5c1.5,2.9,6.6,5.8,10,5.4c0.6-0.1,1.1-0.7,1.6-1.3c1.4-1.5,2.5-3.4,4.1-4.7
		c6.5-5.2,13.9-8.4,22.2-9.5c2.2-0.3,4.9-0.5,6,1.8c1.2,2.5-0.8,4.2-2.5,5.7c-4.1,3.6-8.8,6.2-14.1,7.5c-4.8,1.2-9.7,2.2-14.7,3.3
		c-0.1,2.4,1.6,3.8,3.7,4.2c2.8,0.6,5.8,1,8.6,0.8c6.5-0.6,12.2-3.3,17.4-7.2c0.7-0.5,1.4-0.9,2.1-1.3c0.2,0.2,0.3,0.4,0.5,0.6
		c-1,1.1-1.9,2.5-3.1,3.4c-6.8,5-14.4,7.3-22.7,6.6c-3.1-0.3-6.6-1.2-7.6-4.3c-1-3.3-3-3.9-5.6-4.5c-0.9-0.2-1.8-0.6-2.7-1
		c-4.9-2.5-7.3-7.2-5.4-12.3c1.2-3.2,3.1-6.4,5.3-8.9c6.1-6.8,13.9-10.7,22.7-12.8c3-0.7,6-1.2,9-1.8c4.6,0,9.3,0,13.9,0
		c1.9,0.3,3.8,0.6,5.7,1.1c10.2,2.7,20.3,5.4,30.5,8.1c8.8,2.3,17.3,5.7,26.5,6.3c5.2,0.4,10.1,0.5,13.3-4.6c0.2-0.3,0.8-0.7,1-0.6
		c0.4,0.2,0.8,0.7,0.9,1.1c0.1,0.5,0,1.2-0.1,1.8c-0.9,4-3.3,7-6.5,9.4c-1.1,0.8-1.5,1.7-1.5,3c0.2,8.3,0.4,16.6,0.4,24.9
		c0,2.6,0.3,4.9,2.9,6.1c0.1,0,0.1,0.3,0.2,0.6c-0.6,0.5-1.2,1.1-1.9,1.6c-3.7,3-6.6,6.7-8.5,11.1c-0.9,2.2-0.5,3.2,1.4,4.5
		c12.3,8.1,21,19,24.5,33.5c0.7,2.8,0.9,5.7,1.4,8.7c1.7,0,3.2-0.1,4.8,0c9,0.4,17.9,1.4,26.3,4.9c4.3,1.8,8.3,4.1,11.3,7.8
		c3.9,4.9,4.2,10.8,0.7,15.5c-1.5,1.9-3.4,3.7-5.4,4.9c-7.3,4.4-15.3,4.8-23.4,3.5c-7.9-1.2-15.2-4.2-22.2-8c-1-0.5-1.9-1.1-2.3,0.9
		c4.9,2.4,9.6,5.1,14.6,7.3c11.2,5,22.7,8.7,35.1,9.2c10.3,0.4,18.7-2.6,23.8-12.6c3-5.9,8.4-5.6,11.6,0.1c0,1.8,0,3.6,0,5.4
		c-3.3,8.8-10.1,13.1-19,14.8c-7.1,1.3-14.2,1.2-21.2-0.2c-17-3.3-32.3-10-46-20.7c-0.4-0.3-0.9-0.5-1.3-0.8
		c0.6,1.1,1.4,1.8,2.2,2.6c5.2,4.8,9.7,10.3,12.4,16.9c1.3,3.2,1.9,6.7,2.3,10.1c0.3,2.2-0.7,4.4-3,5.3c-2.6,1.1-5.3,1-7.7-0.6
		c-1.4-0.9-1.8-2.4-1.1-4c1.7-4.1,1.4-8.1,0.1-12.3c-1.8-5.6-4.5-10.7-8.4-15.1c-18.5,15.4-39.7,18.8-62.7,14.2c0,2.4-0.2,4.7,0,6.9
		c0.2,2.7-0.5,4.9-2.6,6.8C125.4,238.4,124.1,240.3,122.7,242z M88.8,205.4c0.1-0.2,0.1-0.4,0.2-0.6c-0.2-0.2-0.3-0.5-0.5-0.7
		c-10.9-12.2-16-26.2-13.1-42.7c0.1-0.5-0.6-1.7-1.2-1.8c-9.5-3-19-2.9-28.3,0.8c-5.7,2.3-8,6.6-6.8,12.7c1,5.4,3.9,9.8,7.5,13.8
		c7.7,8.3,17.5,13.2,28.3,16C79.4,204,84.1,204.5,88.8,205.4z M149.1,109.8c0.4,0,0.8,0,1.1,0c0.1,1.6,0.3,3.2,0.4,4.8
		c0.3,5.4,0.2,5.3,5.4,6.4c2.9,0.6,5.8,1.4,8.7,1.9c2.7,0.4,3.8-0.6,3.8-3.2c-0.2-10.4-0.3-20.8-0.6-31.2c0-0.9-0.9-2.3-1.7-2.7
		c-3.9-2-8-2.1-12.2-1c-3.2,0.9-3.3,1.3-3.3,4.6c0,2.7-0.2,5.3-0.4,8c-0.3,0-0.5,0-0.8,0c-0.1-0.5-0.4-1.1-0.4-1.6
		c-0.1-2.6-0.2-5.2-0.4-7.8c-0.1-0.9-0.4-2-1-2.6c-4-3.9-12.5-4-16.5-0.1c-0.9,0.9-1.7,2.4-1.6,3.7c0.1,9.5,0.3,19,0.5,28.5
		c0,0.9,0.1,1.7,0.2,2.4c6.2,0,12.1,0,18.2,0C148.8,116.3,148.9,113.1,149.1,109.8z M200,199.8c10.6,5.9,21.4,9.9,33.6,8.9
		c5.2-0.5,10-2,13.9-5.5c5.3-4.7,5.8-11.4,0.7-16.3c-2.7-2.6-6-4.7-9.4-6.2c-6.7-3.1-14-4.1-21.3-4.6c-3-0.2-6.1-0.3-9.3-0.4
		C207.6,184.5,204.8,192.4,200,199.8z M136.7,157.9C136.7,157.9,136.6,157.9,136.7,157.9c0,2.7,0,5.4-0.1,8.1
		c-0.1,1.8,0.5,2.9,2.1,3.8c4.4,2.4,8.7,5,13,7.6c5.5,3.3,5.5,3.3,9.1-2.2c3.8-6,6-12.5,4.2-19.6c-2.1-8.5-7.9-13.6-15.9-16.7
		c-5.7-2.2-11.6-2.9-17.6-2.9c-0.8,0-2.2,0.6-2.2,0.9c0,1.4-1,3.1,1.2,4c4.2,1.6,6.1,4.6,6.1,9.2
		C136.7,152.7,136.7,155.3,136.7,157.9z M90.6,168.3c-2.6,13.2,0.1,24.9,8,35.3c0.4,0.5,1.3,1,1.8,0.9c3.4-0.8,6.8-1.7,10.2-2.7
		c0.6-0.2,1.2-1.2,1.2-1.8c0.1-13.5,0.2-27.1,0.2-40.6c0-0.8-0.6-2-1.3-2.3c-3.8-1.8-7.7-3.3-11.5-4.9c-0.5-0.2-1.5,0.2-1.8,0.6
		c-1.5,2.4-2.9,5-4.4,7.6c2.4,1.8,4.7,3.3,6.8,4.9c3.1,2.4,5.4,5.3,6.5,9.1c1.2,4.2,0.1,7.8-2.9,10.9c-0.4,0.4-1.1,0.7-1.5,0.5
		c-0.4-0.1-0.7-0.9-0.7-1.4c-0.2-1.1,0-2.3-0.3-3.3C98.9,175.9,95.4,171.9,90.6,168.3z M178.8,195.7c-0.9-0.5-1.5-0.9-2.1-1.3
		c-2.3-2-4.4-1.7-7.1-0.3c-12.3,6.6-24.6,13.1-37.1,19.4c-2.4,1.2-3.3,2.6-3.2,5.2c0.1,2,0.7,2.6,2.6,2.7c7.2,0.4,14.1-0.9,20.8-3.4
		C164.2,213.8,172.9,206.6,178.8,195.7z M171.2,191.1c-4.6-2.7-8.8-5.2-13.1-7.6c-0.5-0.3-1.5-0.1-1.9,0.3
		c-5.5,5.1-11.7,9-18.5,12.1c-0.6,0.3-1.3,1.1-1.3,1.7c-0.1,3.8-0.1,7.6-0.1,11.8C148,203.2,159.4,197.2,171.2,191.1z M155.3,181.7
		c-6.3-3.7-12.3-7.2-18.5-10.9c0,7.9,0,15.4,0,23.1C143.8,191,149.8,187.2,155.3,181.7z M82.4,92.7c0.5,0.2,0.7,0.3,0.8,0.3
		c0.3,0,0.6,0.1,0.9,0c8.5-0.6,16.2-3.2,23.2-8c1.1-0.8,2.1-1.7,3-2.7c0.5-0.6,0.7-1.4,1-2.1c-0.8-0.3-1.6-0.7-2.4-0.9
		c-0.3-0.1-0.7,0-1.1,0.1c-9.2,1-17,4.8-23.7,11C83.4,91,83,91.8,82.4,92.7z M112.1,155.2c0-2.3,0.1-4.3,0-6.4
		c-0.1-2.6,0.6-5,2.8-6.5c2-1.3,2.3-2.9,1.7-4.9c-4.1,0.2-13.9,7.5-16.9,12.6C103.7,151.7,107.8,153.4,112.1,155.2z M48.4,154.9
		c3-0.5,5.9-1.4,8.9-1.4c6.2,0.1,12.3,0.6,18.5,0.9c0.6,0,1.5-0.2,1.8-0.6c0.9-1.6,1.5-3.3,2.4-5.2
		C68.7,148.1,58.1,149.2,48.4,154.9z M111.7,203.7c-3.6,1-6.9,1.9-10.6,2.9c4.6,4.6,9.8,7.1,15.1,9.6c0.9,0.4,2.4-0.5,3.6-0.8
		c-0.2-0.5-0.2-1.4-0.5-1.5C114.2,212.5,111.8,209.2,111.7,203.7z M175.3,191.2c1.7,1,2.9,1.7,4.5,2.6c0.7-2,1.3-3.7,2.2-6.1
		C179.5,189,177.7,190,175.3,191.2z M129.6,83.7c1.8-1,3.2-1.9,5-2.9c-1.9-0.6-3.4-1-5-1.5C129.6,80.9,129.6,82.1,129.6,83.7z
		 M169.5,90.8c1.6-1.4,2.7-2.4,4.3-3.8c-1.8,0-3,0-4.3,0C169.5,88.1,169.5,89.1,169.5,90.8z"/>
</g>
</svg>
