<?xml version="1.0" encoding="utf-8"?>
<!-- Generator: Adobe Illustrator 27.3.1, SVG Export Plug-In . SVG Version: 6.00 Build 0)  -->
<svg version="1.1" id="Layer_1" xmlns="http://www.w3.org/2000/svg" xmlns:xlink="http://www.w3.org/1999/xlink" x="0px" y="0px"
	 viewBox="0 0 300 300" style="enable-background:new 0 0 300 300;" xml:space="preserve">
<style type="text/css">
	.st0{fill:#FDB414;}
	.st1{fill:#00355F;}
</style>
<circle class="st0" cx="68.3" cy="103" r="12.3"/>
<g>
	<path class="st1" d="M254.1,195c-0.2,0.3-0.4,0.7-0.5,1c-0.9,1.8-1.9,3.7-2.9,5.5c-1.2,2.1-2.4,4.2-3.6,6.4
		c-0.2,0.4-0.3,0.9-0.5,1.2c-1.7,2.6-3.4,5.1-5.3,7.6c-0.8,1.1-1.9,1.9-2.7,2.9c-0.7,0.9-1.3,1.9-2.1,2.8c-0.9,1-1.9,1.8-2.8,2.7
		c-1.1,1.1-2,2.4-3.1,3.4c-2.2,2-4.5,4-6.8,5.9c-1.2,1.1-2.4,2.3-3.7,3.2c-2,1.4-4.1,2.6-6.2,3.9c-1.9,1.2-3.7,2.4-5.6,3.6
		c-0.7,0.4-1.5,0.6-2.3,0.9c-0.2,0.1-0.4,0.1-0.5,0.2c-2.1,1-4.1,2.1-6.2,3c-2,0.8-4.1,1.5-6.1,2.2c-1.9,0.7-3.8,1.4-5.7,2.1
		c-1.4,0.5-2.8,1.1-4.2,1.4c-1.2,0.3-2.5,0.3-3.7,0.6c-2,0.4-4,0.9-6.1,1.2c-1.5,0.2-3.1,0-4.6,0.3c-6.7,1.2-13.5,0.4-20.3,0.5
		c-1.8,0-3.6-0.4-5.4-0.6c-1.6-0.2-3.2-0.5-4.8-0.9c-3-0.7-6-1.4-9-2.2c-1.8-0.5-3.6-1.3-5.3-1.9c-1.8-0.7-3.7-1.3-5.5-2.1
		c-2.5-1.1-5-2.4-7.5-3.6c-2.1-1-4.2-2-6.2-3.1c-1.9-1.1-3.8-2.3-5.6-3.5c-1.1-0.7-2.3-1.4-3.3-2.3c-0.6-0.6-1-1.5-1-2.3
		c-0.1-8.1,0-16.1,0-24.2c0-14.1,0-28.3,0-42.4c0-32.1,0-64.2-0.1-96.3c0-2.7,1.6-3.7,3.2-5c1.3-1,2.8-2,4.2-2.9
		c1.4-0.8,2.8-1.6,4.2-2.3c2.8-1.4,5.7-2.7,8.4-4.3c2.2-1.3,4.5-2.3,7.1-2.9c1.5-0.4,3-1.1,4.5-1.6c1.6-0.5,3.1-1.1,4.7-1.5
		c2.5-0.7,5-1.3,7.6-1.9c1.6-0.3,3.1-0.5,4.7-0.8c8.5-1.3,17.1-0.7,25.6-0.6c2.1,0,4.2,0.4,6.3,0.7c2.2,0.4,4.4,0.9,6.6,1.4
		c1.7,0.4,3.3,0.8,4.9,1.3c2.3,0.7,4.5,1.5,6.7,2.3c1.3,0.5,2.7,0.9,4,1.5c1.5,0.7,2.9,1.6,4.4,2.3c2.5,1.2,5,2.2,7.5,3.5
		c1.7,0.9,3.3,1.8,4.9,2.9c2.8,1.9,5.6,3.9,8.3,6c1.6,1.3,3.1,2.8,4.7,4.1c1,0.8,2.1,1.5,3,2.4c1.6,1.5,3.2,3,4.7,4.6
		c0.9,1,1.7,2.2,2.5,3.3c0.9,1.2,1.7,2.4,2.6,3.5c1,1.2,2.2,2.2,3.1,3.5c1.6,2.4,3,5,4.6,7.5c0.7,1.2,1.7,2.2,2.4,3.5
		c0.9,1.9,1.6,3.9,2.5,5.8c0.4,0.8,1.2,1.5,1.6,2.3c0.6,1.3,1,2.8,1.5,4.2c0.7,2.2,1.4,4.4,2.1,6.6c0.5,1.7,1.1,3.4,1.5,5.1
		c0.5,2.1,1,4.2,1.4,6.4c0.3,1.2,0.5,2.4,0.6,3.7c0.3,2.1,0.2,4.2,0.7,6.2c1.5,5.6,0.5,11.3,0.6,17c0.1,2.8-0.4,5.7-0.8,8.5
		c-0.3,2.3-0.8,4.7-1.3,7c-0.5,2.1-1.3,4.2-1.9,6.3c-0.2,0.7-0.1,1.5-0.3,2.2c-0.4,1.4-0.9,2.7-1.4,4.1c-0.6,1.6-1.3,3.1-2,4.7
		C254.8,193.2,254.5,194.1,254.1,195C254.1,195,254.1,195,254.1,195z M140.6,107.1c-2.3,0.3-5.3,0.3-8.2,1.1c-2.7,0.7-5.4,2-7.9,3.4
		c-1.9,1.1-3.8,2.4-5.4,3.9c-1.9,1.9-3.5,4-4.9,6.2c-1.4,2.2-2.6,4.7-3.4,7.2c-0.9,2.9-1.4,5.9-1.6,8.9c-0.2,2.3,0.3,4.7,0.5,7
		c0.2,1.4,0.4,2.8,0.9,4.1c0.7,1.9,1.5,3.8,2.4,5.7c0.3,0.6,0.5,1.3,0.9,1.8c0.6,0.8,1.3,1.5,2,2.2c2.1,2.1,4,4.6,6.5,6.2
		c2.6,1.7,5.3,3.5,8.7,3.8c2,0.2,4,1.2,6,1.2c2.6,0.1,5.3-0.4,7.9-0.7c0.4,0,0.7,0,1.1-0.1c0.3-0.1,0.5-0.2,0.7-0.3
		c0,0.4,0,0.8,0,1.2c-0.1,0.3-0.2,0.5-0.4,0.8c-1.1,1.3-2.3,2.4-3.2,3.8c-1.2,1.6-2.2,3.4-3.3,5c-1.5,2.1-3.1,4.2-4.7,6.3
		c-0.2,0.2-0.4,0.4-0.5,0.7c-1,1.5-2.1,3-3.1,4.5c-1.4,2.3-3.4,4.1-4.5,6.7c-0.8,1.7,0.4,1.5,0.9,2c1.5,1.3,3.1,2.5,4.7,3.7
		c0.3,0.3,1.3,0.3,1.5,0.1c1.1-1.4,2-2.9,3-4.3c0.7-1,1.2-2.1,1.9-3.1c2.2-3,4.6-5.9,6.8-8.9c1.5-2,3-4.1,4.6-6.2
		c0.6-0.7,1.4-1.3,1.9-2.1c1.7-2.5,3.3-5.1,5.1-7.6c1.5-2.1,3.1-4.1,4.6-6.2c2.1-2.9,4.1-5.9,6-8.9c1.2-1.9,2.1-3.9,3.1-5.8
		c0.3-0.5,0.5-1.1,0.7-1.6c0.4-1.9,1-3.8,1.1-5.7c0.2-2.8,0.5-5.7,0.1-8.5c-0.3-2.5-1.3-4.9-2.1-7.3c-0.6-1.6-1.4-3.2-2.3-4.7
		c-1.1-1.8-2.3-3.6-3.6-5.3c-0.7-0.9-1.8-1.4-2.7-2.1c-1.9-1.4-3.7-2.8-5.7-4.1c-1.3-0.8-2.7-1.5-4.1-2c-1.6-0.6-3.2-1.1-4.9-1.4
		C145.6,107.3,143.4,107.3,140.6,107.1z M232.7,140.4C232.6,140.4,232.6,140.4,232.7,140.4c0-11.6,0-23.3-0.1-34.9
		c0-0.4-0.3-0.8-0.4-1.2c-0.4,0.4-0.9,0.7-1.3,1.1c-0.2,0.2-0.3,0.6-0.5,0.9c-0.5,0.6-1.2,1.1-1.6,1.8c-1,1.7-1.9,3.5-3,5.2
		c-1.4,2.1-3,4-4.5,6.1c-0.3,0.5-0.5,1.1-0.8,1.5c-0.4,0.6-1.1,1.1-1.5,1.7c-0.8,1.4-1.5,2.9-2.3,4.3c-1.1,1.7-2.4,3.3-3.6,5
		c-1.4,1.9-2.7,3.9-4.1,5.8c-1,1.4-2.1,2.8-3.1,4.2c-0.3,0.4-0.6,0.9-0.9,1.4c-0.9,1.1-1.9,2.2-2.8,3.4c-0.8,1.2-1.2,2.5-2,3.7
		c-1.2,1.8-2.6,3.5-3.9,5.3c-1.1,1.5-2.3,3-3.1,4.6c-1.1,2.1-3.2,3.5-3.9,5.9c0,0.1-0.1,0.2-0.2,0.3c-1.2,1.6-2.4,3.2-3.5,4.8
		c-1,1.5-2,3.1-3,4.6c-1.4,2-2.9,4-4.3,6c-0.8,1.1-1.6,2.1-2.3,3.2c-0.4,0.5-0.6,1.2-0.9,1.8c0.5,0.1,1.1,0.3,1.6,0.3
		c14.6,0,29.2,0,43.8,0c1.3,0,1.7,0.4,1.6,1.7c-0.1,4.1-0.1,8.2,0,12.3c0,0.5,0.8,1.3,1.3,1.3c2.5,0.1,5,0,7.5,0.1
		c1.1,0,1.7-0.4,1.7-1.6c0-4.1,0-8.2,0-12.3c0-0.9,0.2-1.5,1.4-1.4c1.8,0.1,3.5,0.1,5.3,0c0.4,0,1-0.6,1-1c0.1-2.4,0-4.7,0-7.1
		c0-1-0.4-1.2-1.2-1.2c-1.6,0-3.2-0.1-4.7,0c-1.3,0.1-1.8-0.2-1.8-1.8C232.7,164,232.7,152.2,232.7,140.4z"/>
	<path class="st1" d="M68.3,122.4c-0.5,1.3-0.9,2.6-1.4,3.8c-0.5,1.3-1.1,2.6-1.6,3.9c-0.6,1.7-1.2,3.4-1.7,5.2
		c-0.3,1.1-0.7,2.1-0.9,3.2c-0.3,1.8-0.4,3.7-0.8,5.6c-2.2,8.9-1.4,18-1.3,27.1c0,2.7,0.4,5.3,0.8,8c0.3,2,0.8,3.9,1.3,5.8
		c0.7,2.4,1.7,4.6,2.1,7c0.3,1.6,1,2.9,1.6,4.3c0.8,1.8,1.2,3.8,2,5.7c0.6,1.4,1.5,2.7,2.1,4.1c0.7,1.4,1.2,2.9,2,4.2
		c1.5,2.6,3.2,5.1,4.9,7.6c0.9,1.4,1.9,2.7,2.8,4.1c0.1,0.1-0.1,0.5-0.1,0.5c-0.4,0-1,0.1-1.3-0.2c-0.9-0.9-1.8-2-2.6-2.9
		c-2.2-2.5-4.6-5-6.7-7.6c-1.7-2.1-3.1-4.4-4.7-6.6c-0.8-1.1-1.7-2.2-2.4-3.3c-0.7-1.1-1.2-2.3-1.8-3.5c-0.8-1.4-1.6-2.8-2.4-4.2
		c-0.7-1.3-1.2-2.7-1.9-4c-0.5-1.1-1.1-2.1-1.6-3.2c-0.3-0.6-0.6-1.2-0.8-1.9c-0.6-1.7-0.8-3.6-1.7-5.1c-1.3-2.1-1.3-4.4-1.9-6.7
		c-0.4-1.5-0.7-3.1-1.1-4.6c-0.5-2.1-1.3-4.1-1.6-6.2c-0.4-2-0.5-4.2-0.5-6.2c-0.2-7.5-0.4-15-0.5-22.5c0-2.1,0.5-4.3,0.7-6.4
		c0.2-1.5,0.3-3.1,0.6-4.6c0.3-1.2,0.8-2.4,1.3-3.6c0-0.1,0-0.1,0.1-0.1c1-2.6,1.7-2.7,4.5-1.4c2.3,1.1,4.7,1.8,7.1,2.6
		c1.9,0.6,3.9,1.2,5.9,1.8C67.1,122.1,67.6,122.2,68.3,122.4z"/>
	<path class="st1" d="M61.7,92.1c0.9-0.5,1.8-1.1,2.8-1.4c1.8-0.4,3.7-1,5.3-0.7c2.4,0.5,4.9,1.4,6.8,2.7c1.6,1.2,2.6,3.3,3.8,5
		c1.3,2,1.5,4.4,1.1,6.6c-0.4,2.2-1.3,4.3-2.1,6.4c-0.4,0.9-1.1,1.7-1.9,2.2c-1.3,1-2.9,1.7-4.3,2.5c-2.2,1.3-4.7,1-7.1,0.9
		c-2.3-0.1-4.1-1.2-5.7-2.7c-1-0.9-2.2-1.7-3.2-2.7c-0.6-0.7-1-1.6-1.2-2.5c-0.5-1.9-0.9-3.8-1-5.8c-0.1-1.1,0.5-2.2,1.1-3.3
		c0,0.4,0.1,0.8,0.1,1.1c0,2,0.6,3.7,1.2,5.5c0.4,1.2,0.9,2.2,1.8,2.9c0.5,0.4,1.2,0.6,1.8,0.9c2.2,1,4.5,1.2,6.8,0.8
		c1.3-0.2,2.5-1.1,3.7-1.9c3.6-2.6,3.3-6.4,3-10.2c-0.1-1-0.5-2.2-1.1-3c-0.6-0.9-1.7-1.6-2.6-2.2c-2-1.4-4.2-1.6-6.5-1.4
		c-0.4,0-0.8,0.3-1.2,0.4c-0.5,0.1-1,0.1-1.5,0.1C61.7,92.3,61.7,92.2,61.7,92.1z"/>
	<path class="st1" d="M140.9,117.1c1.4,0,2.9-0.2,4.2,0.1c1.9,0.4,3.8,1,5.5,1.7c1.7,0.7,3.3,1.7,4.7,2.8c1.3,1,2.2,2.5,3.2,3.8
		c0.7,0.9,1.3,1.8,2,2.7c0.1,0.1,0.2,0.1,0.3,0.2c0.6,1.6,1.3,3.2,1.6,4.9c0.4,2.3,0.8,4.6,0.6,6.9c-0.1,2.2-0.7,4.5-1.5,6.7
		c-0.6,1.5-1.8,2.7-2.8,4c-0.5,0.7-1,1.6-1.6,2.2c-0.8,0.9-1.8,1.8-2.7,2.6c-0.9,0.7-1.8,1.4-2.8,1.9c-0.7,0.4-1.6,0.3-2.2,0.7
		c-3.9,2.6-8.3,1.8-12.5,1.5c-2.1-0.2-4.2-1.5-6.1-2.5c-1.8-0.9-3.6-2-4.9-3.4c-1.7-1.8-3-3.9-4.3-6c-2.4-3.9-2.2-8.4-1.9-12.7
		c0.1-1.1,0.8-2.2,1.2-3.3c0.2-0.6,0.5-1.2,0.6-1.8c0.4-2.8,2.4-4.6,4.2-6.4c1.3-1.3,2.8-2.6,4.4-3.6c1.2-0.8,2.7-1,3.8-1.8
		C136.1,116.5,138.6,117.4,140.9,117.1z"/>
	<path class="st1" d="M222.1,156.3c0,6.5,0,13.1,0,19.6c0,1.1-0.4,1.6-1.6,1.6c-8.7,0-17.3,0-26,0c-0.4,0-1.2-0.2-1.2-0.3
		c0-0.7-0.1-1.5,0.2-2c1.7-2.4,3.6-4.6,5.3-6.9c0.8-1,1.1-2.3,1.8-3.4c0.5-0.8,1.3-1.3,1.9-2c0.8-1,1.5-2.1,2.3-3.1
		c0.8-1.1,1.6-2.2,2.3-3.3c0.9-1.5,1.7-3,2.7-4.4c0.7-1.1,1.7-2,2.5-3c0.8-1.2,1.5-2.5,2.3-3.7c0.4-0.6,1-1.2,1.4-1.8
		c1.2-1.8,2.3-3.7,3.5-5.5c0.5-0.7,1-1.4,1.5-2.1c0.2-0.2,0.5-0.3,0.8-0.4c0.1,0.3,0.3,0.6,0.3,0.9
		C222.1,143.1,222.1,149.7,222.1,156.3C222.1,156.3,222.1,156.3,222.1,156.3z"/>
</g>
</svg>
