<?xml version="1.0" encoding="utf-8"?>
<!-- Generator: Adobe Illustrator 27.3.1, SVG Export Plug-In . SVG Version: 6.00 Build 0)  -->
<svg version="1.1" id="Layer_1" xmlns="http://www.w3.org/2000/svg" xmlns:xlink="http://www.w3.org/1999/xlink" x="0px" y="0px"
	 viewBox="0 0 300 300" style="enable-background:new 0 0 300 300;" xml:space="preserve">
<path d="M111.3,97.4c10,0,20,0,29.9,0c0,0.1,0.1,0.1,0.1,0.2c-0.3,0.4-0.7,0.8-1,1.2c-0.1,0.1-0.3,0.2-0.3,0.3
	c-0.1,0.8-0.7,1.2-1.2,1.7c-0.4,0.4-0.6,0.9-0.9,1.3c-0.4,0.5-0.8,0.9-1.2,1.4c-0.5,0.7-1,1.4-1.6,2.1c-0.4,0.5-0.8,0.9-1.1,1.3
	c-0.5,0.7-1.1,1.3-1.5,2c-0.4,0.6-0.7,1.1-1.2,1.5c-0.3,0.3-0.5,0.8-0.8,1.1c-0.4,0.5-0.8,1-1.3,1.5c-0.2,0.2-0.4,0.5-0.6,0.7
	c-0.3,0.6-0.9,0.8-1,1.5c-0.1,0.4-0.6,0.8-0.9,1.2c-0.6,0.8-1.2,1.5-1.8,2.3c-0.3,0.3-0.4,0.7-0.7,1c-0.3,0.3-0.8,0.6-1.1,0.9
	c-0.3,0.4-0.6,0.9-0.9,1.3c-0.4,0.5-0.8,0.9-1.2,1.3c-0.3,0.3-0.6,0.6-0.7,1c-0.3,0.8-0.7,1.3-1.4,1.8c-0.4,0.3-0.6,0.9-0.9,1.3
	c-0.3,0.5-0.8,0.9-1.1,1.3c-0.3,0.4-0.5,0.7-0.8,1.1c-0.4,0.5-0.8,1-1.2,1.6c-0.8,1-1.5,2.1-2.3,3.2c-0.3,0.4-0.7,0.7-1,1
	c-0.3,0.4-0.6,0.8-0.9,1.2c-0.4,0.5-0.8,1-1.2,1.5c-0.6,0.8-1.1,1.5-1.7,2.3c-0.3,0.4-0.5,0.7-0.8,1.1c-0.2,0.2-0.4,0.5-0.6,0.7
	c-0.6,0.5-1,1.1-1.4,1.8c-0.3,0.7-1.1,1.1-1.7,1.7c-0.1,0.1-0.2,0.1-0.2,0.2c0,0.9-0.7,1.3-1.3,1.8c-0.2,0.2-0.2,0.7-0.7,0.8
	c0,0.2,0,0.3,0,0.5c0.4,0.6,0.8,1.3,1.3,1.9c0.3,0.4,0.7,0.7,1.1,1c0.3,0.2,0.5,0.5,0.7,0.8c0.3,0.5,0.6,1,0.9,1.5
	c0.3,0.4,0.7,0.8,1,1.2c0.6,0.7,1.1,1.4,1.7,2.2c0.3,0.4,0.4,0.8,0.7,1.1c0.9,0.8,1.6,1.6,2.1,2.6c0.3,0.7,1.1,1.1,1.6,1.7
	c0.3,0.3,0.6,0.6,0.8,1c0.5,1,1.3,1.7,2,2.5c0.4,0.4,0.6,1,0.9,1.5c0.3,0.4,0.7,0.7,1.1,1.1c0.3,0.3,0.6,0.7,0.8,1.1
	c0.5,1,1.2,1.7,2,2.4c0.4,0.3,0.5,0.9,0.8,1.4c0.3,0.4,0.6,0.8,0.9,1.2c0.4,0.4,0.7,0.9,1.2,1.2c0.9,0.6,0.9,1.7,1.8,2.3
	c0.7,0.5,1.1,1.5,1.7,2.3c0.2,0.3,0.4,0.6,0.6,0.9c0.5,0.6,1.2,1.1,1.7,1.7c0.4,0.4,0.7,0.9,1,1.4c0.3,0.4,0.5,0.8,0.8,1.2
	c0.6,0.5,1.2,0.9,1.3,1.8c0,0.3,0.4,0.6,0.7,0.8c0.6,0.6,1.1,1.2,1.7,1.8c0.4,0.5,0.7,1,1,1.5c0.2,0.3,0.4,0.7,0.8,0.9
	c0.6,0.4,1.1,1,1.3,1.7c0.1,0.4,0.4,0.7,0.8,1c0.6,0.5,1,1,1.4,1.8c0.3,0.7,1,1.1,1.5,1.7c0.3,0.4,0.7,0.7,1,1.1
	c0.5,0.7,1,1.5,1.6,2.3c0.1,0.2,0.5,0.2,0.5,0.4c0.1,0.5,0.1,0.9-0.7,0.9c-1.8,0-3.6,0.3-5.3-0.1c-3.8-0.9-7.7-0.3-11.5-0.4
	c-3.9-0.1-7.8,0-11.6,0c-1.6,0-1.8-0.2-2.4-1.7c-0.1-0.4-0.5-0.7-0.8-1c-0.3-0.4-0.8-0.7-1.1-1c-0.3-0.3-0.5-0.7-0.7-1.1
	c-0.2-0.4-0.5-0.8-0.8-1.1c-0.4-0.5-0.8-1-1.2-1.5c-0.3-0.4-0.6-0.8-0.9-1.2c-0.2-0.2-0.4-0.4-0.6-0.6c-0.7-0.7-0.9-1.8-1.9-2.4
	c-0.3-0.2-0.6-0.6-0.7-1c-0.4-1.1-1.2-1.7-1.9-2.4c-0.3-0.3-0.6-0.6-0.7-1c-0.3-0.7-0.8-1.3-1.5-1.8c-0.4-0.4-0.5-1.1-0.9-1.6
	c-0.3-0.4-0.7-0.7-1-1.1c-0.3-0.3-0.7-0.6-0.8-1c-0.3-0.7-0.8-1.2-1.3-1.8c-0.6-0.7-1-1.6-1.6-2.4c-0.2-0.3-0.4-0.6-0.7-0.8
	c-1-0.6-1.4-1.8-2.1-2.7c-0.3-0.4-0.7-0.6-1.1-0.9c-0.1-0.1-0.1-0.2-0.2-0.3c-0.1-0.8-0.7-1.2-1.2-1.7c-0.6-0.6-1.1-1.4-1.6-2.1
	c-0.3-0.4-0.7-0.8-1.1-1.3c-0.3-0.3-0.7-0.6-0.8-1c-0.4-1.1-1.3-1.8-2-2.6c-0.4-0.4-0.6-1.1-0.9-1.6c-0.2-0.3-0.4-0.7-0.7-0.9
	c-0.9-0.6-1.2-1.5-1.7-2.4c-0.1-0.2-0.1-0.5-0.1-0.8c0-6.4,0-12.8,0-19.2c0-0.8,0.5-1.3,1-1.7c0.3-0.3,0.6-0.6,0.7-0.9
	c0.3-0.8,0.8-1.3,1.4-1.9c0.4-0.3,0.5-1,0.9-1.4c0.3-0.5,0.8-0.8,1.1-1.2c0.3-0.3,0.6-0.6,0.8-0.9c0.3-0.5,0.5-1.1,0.8-1.6
	c0.2-0.3,0.5-0.6,0.7-0.9c0.4-0.5,0.9-1.1,1.3-1.7c0.2-0.3,0.4-0.6,0.7-0.9c0.4-0.5,0.8-0.9,1.1-1.4c0.3-0.4,0.6-0.9,0.9-1.3
	c0.2-0.3,0.4-0.5,0.6-0.8c0.6-0.8,1.3-1.5,1.9-2.3c0.4-0.5,0.6-1,0.9-1.5c0.2-0.3,0.4-0.6,0.7-0.9c0.6-0.8,1.5-1.4,1.9-2.3
	c0.4-0.8,1.5-1.2,1.6-2.3c0-0.3,0.4-0.7,0.7-0.9c1-0.7,1.4-1.8,2.1-2.7c0.3-0.4,0.7-0.6,1.1-1c0.1-0.1,0.1-0.2,0.1-0.3
	c0.1-0.8,0.7-1.2,1.2-1.7c0.4-0.4,0.6-0.9,0.9-1.3c0.4-0.5,0.8-0.9,1.2-1.4c0.6-0.8,1-1.6,1.6-2.4c0.3-0.4,0.7-0.7,1-1.1
	c0.3-0.3,0.6-0.6,0.8-1c0.3-0.7,0.7-1.4,1.4-1.8C111.2,97.8,111.2,97.5,111.3,97.4z"/>
<path d="M46.3,168.8c0-10.8,0-21.7,0-32.5c0-8.6,0.1-17.2,0.2-25.7c0.9-4.3,0.2-8.7,0.4-13.1c0-0.7,0.2-0.9,1-0.9
	c4.8,0,9.6,0,14.4,0c2.6,0,5.2,0.1,7.8,0.2c1,0,1.5,0.5,1.5,1.5c0,4.9,0,9.8,0,14.8c0,8.5,0,17-0.1,25.5c0,0.4-0.2,0.8-0.3,1.2
	c-0.1,0.5-0.2,1-0.2,1.5c0,13.2,0,26.4,0,39.6c0,7,0,14.1,0,21.1c0,1.3,0,1.3-1.3,1.3c-7.4,0-14.7,0-22.1-0.1
	c-1.1,0-1.2-0.2-1.2-1.2c0-6.8,0-13.5,0-20.3C46.3,177.4,46.2,173.1,46.3,168.8C46.3,168.8,46.3,168.8,46.3,168.8z"/>
<path d="M175.4,115.9c0,1.3,0.2,2.7-0.1,3.9c-0.8,2.9-0.3,5.8-0.4,8.7c-0.1,2.9-0.1,5.9-0.1,8.8c0,0.2,0,0.3,0,0.5
	c0.1,0.2,0.1,0.5,0.2,0.7c0.2-0.2,0.4-0.3,0.6-0.5c0.6-0.5,1.2-1.1,1.8-1.7c0.2-0.2,0.5-0.5,0.7-0.7c0.5-0.7,1.5-0.9,1.9-1.4
	c0.5-0.7,1.5-0.3,1.8-1.1c0-0.1,0.4-0.1,0.6-0.1c0.3-0.1,0.6-0.3,0.8-0.4c0.3-0.1,0.6-0.2,0.8-0.2c0.7-0.1,1.3-0.1,2-0.5
	c0.7-0.4,1.8-0.1,2.7-0.1c0.4,0,0.6,1.4,0.2,1.7c-0.5,0.3-0.4,0.7-0.4,1.1c0,4.7,0,9.4,0,14.1c0,0.4,0,0.9-0.1,1.4c-2,0-3.9,0-5.8,0
	c-0.4,0-0.8,0.3-1.2,0.4c-0.5,0.1-1.1,0.1-1.6,0.3c-0.8,0.2-1.7,0.5-2.3,0.9c-0.5,0.3-1.3,0.4-1.5,1.2c-0.1,0.3-0.3,0.5-0.5,0.7
	c-0.4,0.7-0.8,1.5-0.9,2.3c0,0.2-0.7,0.3-1.1,0.3c-2.1,0-4.1,0-6.2,0c-1.9,0-3.8,0-5.7,0c-2.6,0-5.2-0.1-7.9-0.1
	c-0.8,0-0.9-0.5-0.9-1.1c0-4.1,0-8.3,0-12.4c0-8.6,0-17.1,0-25.7c0-5.9,0.1-11.9,0.2-17.8c0-1.2,0.4-1.6,1.6-1.6c3.7,0,7.4,0,11.1,0
	c8.6,0,17.1,0.1,25.7,0.1c0.4,0,0.7,0.3,1.1,0.4c0.3,0.1,0.6,0.1,0.9,0.1c5,0,10.1,0,15.1,0c6.5,0,13.1,0,19.6,0
	c1.1,0,1.2,0.1,1.2,1.2c0,0.3,0,0.6,0,0.9c-0.1,2.6-0.3,5.1-0.4,7.7c-0.1,2.6,0,5.2,0,7.8c0,0.2-0.1,0.5-0.1,0.7
	c-0.1,0.1-0.1,0.1-0.2,0.1c-3.4,0-6.8,0-10.2,0c-0.3,0-0.7,0-1,0c-7.9,0-15.8,0-23.6,0c-0.5,0-1,0.2-1.3-0.4c0-0.1-0.3-0.1-0.5-0.1
	c-5.5,0-10.9,0-16.4,0c0,0,0,0-0.1,0C175.5,115.9,175.5,115.9,175.4,115.9z"/>
<path d="M197.3,184.8c0.7,0,1.3,0.1,1.9,0c1.2-0.2,2.5-0.2,3.6-0.7c0.7-0.3,1.8-0.2,2.2-1.2c0-0.1,0.2-0.1,0.3-0.1
	c0.8,0,1.2-0.6,1.6-1.1c0.3-0.3,0.6-0.7,0.8-0.9c0.5-0.4,0.5-0.8,0.6-1.3c0.1-0.3,0.3-0.5,0.4-0.8c0.1-0.2,0.2-0.4,0.2-0.7
	c0.1-0.8,0.1-1.7,0.1-2.5c0-0.6-0.2-1.2,0.5-1.6c0.1-0.1,0.1-0.4,0.1-0.5c0-4,0-7.9,0-11.9c0-0.1,0-0.3,0-0.3
	c-1-0.9-0.5-2.1-0.6-3.2c-0.1-1.2-0.6-2.3-1.2-3.4c-0.3-0.5-0.6-1.1-1-1.6c-0.3-0.4-0.8-0.6-1.2-0.9c-0.7-0.4-1.4-0.8-2.2-1.2
	c-0.3-0.1-0.7-0.1-1-0.2c-0.6-0.1-1.3,0.1-1.8-0.6c-0.1-0.1-0.4-0.1-0.6-0.1c-0.9,0-1.7,0-2.7,0c0-0.4,0-0.7,0-1
	c0-5.6,0-11.3,0-16.9c0-1.2,0-1.2,1.2-1.2c1.8,0,3.7-0.3,5.4,0.1c2.1,0.5,4.3,0.1,6.3,0.6c1.1,0.3,2.3,0.2,3.2,0.7
	c0.9,0.5,1.8,0.3,2.5,0.7c0.7,0.4,1.8,0.3,2.2,0.7c0.6,0.7,1.5,0.3,2,1.1c0.3,0.5,1.3,0.5,1.9,0.9c0.5,0.3,0.9,0.7,1.3,1
	c0.3,0.3,0.7,0.6,1,0.9c0.3,0.3,0.7,0.5,1,0.7c0.7,0.5,1.2,1.1,1.6,1.8c0.3,0.7,1,1.2,1.5,1.8c0.4,0.7,0.6,1.6,1.2,2.1
	c0.6,0.7,0.4,1.6,0.8,2.1c0.5,0.6,0.3,1.3,0.6,1.6c0.8,0.9,0.3,2.2,1.1,3.2c0.4,0.5,0.2,1.4,0.3,2.2c0.1,0.4,0.3,0.8,0.4,1.2
	c0.1,0.3,0.2,0.7,0.2,1c0.1,0.9,0,1.8,0.1,2.6c0.1,1.5,0.3,3,0.4,4.5c0.1,1.4,0.2,2.9,0.2,4.3c0,2.3,0.2,4.7-0.2,7
	c-0.4,2,0,4-0.5,5.9c-0.4,1.3-0.3,2.6-0.8,3.8c-0.3,0.8-0.3,1.6-0.6,2.4c-0.3,0.7-0.3,1.7-0.7,2.1c-0.5,0.6-0.4,1.2-0.6,1.8
	c-0.3,0.6-0.6,1.1-1,1.7c-0.4,0.6-0.7,1.3-1.1,1.9c-0.2,0.3-0.4,0.7-0.7,1c-0.9,0.9-1.6,1.9-2.6,2.7c-0.8,0.6-1.4,1.3-2.4,1.7
	c-1,0.4-1.7,1.2-2.6,1.7c-0.7,0.4-1.6,0.6-2.3,0.8c-0.3,0.1-0.6,0.3-0.8,0.5c-0.1,0-0.1,0.1-0.2,0.1c-1.1,0.3-2.2,0.5-3.3,0.8
	c-0.5,0.1-0.9,0.3-1.4,0.5c-0.2,0.1-0.4,0.1-0.6,0.1c-1.1,0.1-2.2-0.1-3.2,0.6c-0.5,0.3-1.2,0.2-1.9,0.2c-0.8,0-1.5,0-2.3,0.1
	c-0.8,0.1-1.6,0.4-2.4,0.5c-1.1,0.1-2.3,0.1-3.4,0.1c-0.6,0-1-0.2-1-1c0-1,0-1.9,0-2.9c0-0.3,0.2-0.6,0.3-0.8
	c0.1-0.3,0.2-0.6,0.2-0.8c0-4.4,0-8.8,0-13.2C197.3,185.6,197.3,185.3,197.3,184.8z"/>
<path d="M162.5,172.6c3.5,0,6.9,0,10.4,0c0.8,0,1.1,0.3,1.2,1.1c0.2,1.7,0.3,3.5,0.9,5.1c0.2,0.7,0.3,1.6,1,2.1
	c0.3,0.2,0.2,0.9,0.7,1.3c0.3,0.3,0.7,0.4,1,0.6c0.7,0.3,1.3,0.8,1.9,1.2c0.1,0.1,0.2,0.1,0.3,0.1c1.7,0.2,3.3,0.5,5,0.7
	c0.9,0.1,1.9,0.1,2.8,0.1c0.4,0,0.7,0.2,0.7,0.6c0,0.2,0,0.5,0,0.7c0,5.8,0,11.6,0,17.5c0,0.8-0.3,1-1,1c-2.6-0.1-5.2,0.2-7.8-0.3
	c-1.8-0.3-3.7,0-5.4-0.6c-1.2-0.4-2.5-0.3-3.6-0.7c-0.8-0.3-1.7-0.3-2.3-0.6c-0.7-0.4-1.6-0.3-2.2-0.7c-1.2-0.8-2.7-0.8-3.7-1.8
	c-0.4-0.4-1.2-0.5-1.8-0.9c-0.4-0.3-0.6-0.7-0.9-1.1c-0.3-0.3-0.5-0.5-0.8-0.7c-0.8-0.6-1.5-1.2-2-2.1c-0.4-0.6-1.1-1.1-1.7-1.7
	c-0.1-0.1-0.1-0.1-0.1-0.2c0-0.8-0.8-1.2-1.1-1.8c-0.3-0.7-0.7-1.4-1-2.2c-0.1-0.4,0-0.9-0.6-1.1c-0.1,0-0.1-0.3-0.1-0.4
	c-0.1-0.6,0.2-1.4-0.6-1.7c0,0,0-0.2-0.1-0.2c-0.3-2.4-0.9-4.8-0.8-7.2c0.1-0.8,0.1-1.6-0.4-2.5c-0.4-0.7-0.2-1.8,0-2.6
	c0.1-0.5,0.6-1,1.5-1C155.4,172.7,159,172.6,162.5,172.6z"/>
<path d="M277.9,103.8c0,0.9-0.1,1.8,0,2.7c0.3,1.9-0.4,3.7-0.8,5.5c-0.2,1.1-1.1,2.3-2.1,3.1c-0.7,0.5-1.3,1.2-1.9,1.7
	c0,0-0.1,0.1-0.1,0.1c-0.7,0.3-1.4,0.5-2.1,0.8c-0.6,0.3-1.2,0.6-1.8,0.9c-0.5,0.2-1,0.3-1.4,0.5c-0.4,0.2-0.8,0.4-1.3,0.6
	c-0.1,0-0.1,0.1-0.2,0.1c-0.9,0.2-1.9,0.5-2.8,0.7c-0.5,0.2-1,0.4-1.5,0.6c-0.6,0.2-0.8-0.2-0.8-0.8c0-2.8,0-5.6,0-8.4
	c0-0.9,0.5-1.3,1.4-1.6c1-0.3,2-0.5,2.8-1.2c0.4-0.3,1-0.5,1.4-0.8c0.2-0.2,0.4-0.5,0.5-0.8c0.1-0.8,0.2-1.6,0.4-2.5
	c0.4-1.1,0.7-2.6-0.3-3.8c-0.1-0.1-0.1-0.3-0.1-0.4c0.1-0.9-0.6-1.2-1.1-1.7c-0.9-1-2-0.6-3-0.7c-0.1,0-0.2,0-0.2,0
	c-0.6-0.1-1.6-0.2-1.6-0.4c-0.1-0.8-0.5-1.6,0.3-2.4c0.2-0.2,0.2-0.6,0.2-0.9c0-1.6,0-3.2,0-4.8c0-0.7,0.2-1,0.9-1
	c2.1,0,4.3,0,6.4,0.1c0.3,0,0.6,0.3,1,0.4c0.1,0.1,0.3,0.1,0.4,0.2c0.8,0.3,1.7,0.4,2.5,0.8c0.7,0.4,1.2,1,1.7,1.5
	c0.6,0.6,1.2,1.3,1.8,2c0.1,0.1,0.1,0.4,0.2,0.5c0.1,0.2,0.3,0.5,0.4,0.7c0.1,0.3,0.2,0.5,0.3,0.8c0.1,0.7,0,1.5,0.6,2.2
	c0.1,0.2,0.1,0.5,0.1,0.8C277.9,100.7,277.9,102.2,277.9,103.8z"/>
<path d="M256,112.6c0,0.2,0.1,0.4,0.1,0.7c0,3,0,6,0,9c0,0.6-0.3,0.7-0.7,1c-0.8,0.6-1.7,0.4-2.4,0.8c-0.9,0.5-1.8,1.2-1.7,2.5
	c0.1,1.6,0,3.3,0,4.9c0,0.6,0.2,0.8,0.8,0.8c1,0,2.1,0,3.1,0c0.6,0,0.9,0.2,0.9,0.8c0,2.8,0,5.6,0,8.4c0,0.6-0.2,0.8-0.8,0.8
	c-4.4,0-8.8,0-13.2,0c-0.7,0-0.9-0.3-0.9-0.9c0-2,0-4,0-6.1c0-4.3,0-8.6,0.1-12.9c0-0.4,0.3-0.8,0.4-1.2c0-0.1,0.1-0.2,0.2-0.4
	c0.3-0.5,0.5-1.2,0.9-1.6c0.8-0.9,1.7-1.8,2.7-2.6c0.6-0.4,1.3-0.6,2-1c0.7-0.4,1.4-0.8,2-1.1c0,0,0.1-0.1,0.1-0.1
	c0.9-0.2,1.8-0.5,2.7-0.7c0.4-0.1,0.8-0.3,1.2-0.5c0.1-0.1,0.2-0.1,0.4-0.2C254.5,113,255.2,112.8,256,112.6z"/>
<path d="M144.4,155.6c-0.1,0.5-0.3,0.9-0.3,1.3c0,4.9,0,9.7,0,14.6c0,0.3,0,0.6,0,1c-5.7,0-11.4,0-17.1,0c0-5.9,0-11.7,0-17.7
	c0.8,0,1.5,0,2.2,0c4.2,0,8.3,0.1,12.5,0.1C142.6,154.9,143.8,154.6,144.4,155.6z"/>
<path d="M246.8,104.8c-1.4,0-2.8,0-4.2,0c-0.6,0-0.8-0.2-0.8-0.8c0-2.1,0-4.3,0.1-6.4c0-0.4,0.3-0.7,0.4-1.1c0-0.1,0.2-0.2,0.1-0.3
	c-0.2-1,0.5-1.7,0.9-2.5c0.3-0.7,1-1.2,1.5-1.8c0.3-0.3,0.5-0.5,0.8-0.8c0.6-0.4,1.2-0.8,1.8-1.2c0.2-0.1,0.5-0.1,0.7-0.1
	c0.4-0.1,0.8-0.3,1.2-0.5c0.2-0.1,0.4-0.1,0.6-0.1c1.7,0,3.4,0,5.2,0c0.7,0,0.9,0.2,0.9,0.9c0,2.6,0,5.1,0,7.7
	c0,0.6-0.2,0.8-0.8,0.8c-0.2,0-0.5,0-0.7,0c-0.9-0.1-1.3,0.6-2,1c-0.8,0.6-0.7,1.4-0.7,2.2c0,0.5,0,1.1,0,1.6c0,1.3,0,1.3-1.4,1.3
	C249.3,104.8,248.1,104.8,246.8,104.8z"/>
<path d="M269.5,132.9c2.4,0,4.9,0,7.3,0c0.4,0,1,0.1,1,0.3c0.1,0.5,0,1.1-0.1,1.6c-0.1,0.3-0.3,0.6-0.3,0.9c0,1.9,0,3.9,0,5.8
	c0,0.6-0.2,0.8-0.9,0.8c-4.9,0-9.7,0-14.6,0c-0.8,0-0.9-0.3-0.9-0.9c0-2.5,0-5.1,0-7.6c0-0.7,0.2-0.9,0.9-0.9
	C264.4,132.9,267,132.9,269.5,132.9C269.5,132.9,269.5,132.9,269.5,132.9z"/>
<polygon points="267.7,148.6 267.7,218.3 32.6,218.3 32.6,80.9 266.4,80.9 267.7,80.9 278,80.9 278,72 23,72 23,227.2 278,227.2 
	278,148.6 "/>
</svg>
