<?xml version="1.0" encoding="utf-8"?>
<!-- Generator: Adobe Illustrator 27.3.1, SVG Export Plug-In . SVG Version: 6.00 Build 0)  -->
<svg version="1.1" id="Layer_1" xmlns="http://www.w3.org/2000/svg" xmlns:xlink="http://www.w3.org/1999/xlink" x="0px" y="0px"
	 viewBox="0 0 300 300" style="enable-background:new 0 0 300 300;" xml:space="preserve">
<g>
	<g>
		<path d="M254.9,97.7c0-1.5-0.9-2.7-2.3-2.7c-1.1,0-2,0.7-2,2.1c0,1.3,0.7,2.8,1.8,4.4C253.8,100.8,254.9,99.5,254.9,97.7z"/>
		<path d="M249.6,106.3c-0.9,0.9-1.4,2-1.4,3.2c0,2,1.4,3.2,3.8,3.2c1.1,0,2.3-0.3,3.3-0.8C253.1,110,251.2,108.2,249.6,106.3z"/>
		<path d="M253.6,77c-15.1,0-27.4,12.3-27.4,27.4c0,15.1,12.3,27.4,27.4,27.4c15.1,0,27.4-12.3,27.4-27.4S268.7,77,253.6,77z
			 M262.1,116.8c-1.2-0.8-2.4-1.6-3.5-2.4c-2.1,1.6-4.7,2.4-7.5,2.4c-4.6,0-7.9-2.2-7.9-6.1c0-2.9,1.9-5.3,4.7-6.6
			c-1.4-2.1-2.2-4.3-2.2-6.3c0-3.7,2.9-6.9,7.4-6.9c3.8,0,6.5,2.3,6.5,5.9c0,3.2-2.2,5.6-5.6,6.6c1.3,1.5,2.8,3,4.4,4.4
			c0.6-1.4,0.8-3.3,0.5-5.5c1.4,0.2,2.9,0.9,4.4,1.8c-0.1,2.5-0.7,4.6-1.7,6.4c1.2,1,2.4,1.9,3.6,2.8
			C264.6,114.6,263.6,115.7,262.1,116.8z"/>
	</g>
	<g>
		<g>
			<path d="M104.1,66.5h12.6l9.6,37.8V66.5h13.4v76.1h-12.6l-9.6-36.7v36.7h-13.4V66.5z"/>
			<rect x="81" y="66.5" width="13.3" height="76.1"/>
			<path d="M213,109l-13-19.3c-1.9-2.9-3.1-5.6-3.1-7.4c0-2.7,1.9-3.9,4-3.9c1.9,0,4.4,1,4.4,5.1h13c0-10.5-7.2-17.7-17.3-17.7
				c-10.2,0-17.5,6.4-17.5,16.2c0,4.4,0.6,9.1,5.8,16.8l13,19.5c2.9,4.3,3.3,5.8,3.3,8.2c0,2.9-2.4,4.1-4.5,4.1
				c-2.3,0-5.1-0.9-5.1-5.3h-13.3c0,10.9,7.5,18.2,18.1,18.2c10.6,0,18-6.5,18-16.7C219,121.2,218.2,116.7,213,109z"/>
			<polygon points="145.9,79.4 156.8,79.4 156.8,79.4 156.8,142.6 170.2,142.6 170.2,79.4 170.2,79.4 181,79.4 181,66.5 145.9,66.5 
							"/>
		</g>
		<path d="M56.4,66.5h-19v76.1h13.4v-18.5h5.6c10.4,0,17.6-6.8,17.6-19.6v-18C74,73.6,66.7,66.5,56.4,66.5z M60.9,104.2
			c0,6.5-3.6,7.2-6.3,7.2h-3.9V79.3h3.9c2.9,0,6.3,0.9,6.3,7.2V104.2z"/>
	</g>
	<g>
		<path d="M138.3,147.9h-17.7v76.1h17.7c10.5,0,17.7-6.9,17.7-19.7v-36.4C156,155,148.8,147.9,138.3,147.9z M142.9,204.2
			c0,6.4-3.5,7.1-6.1,7.1H134v-50.6h2.7c2.9,0,6.1,0.9,6.1,7.2V204.2z"/>
		<path d="M180.9,147.9h-17.7v76.1h17.7c10.5,0,17.7-6.9,17.7-19.7v-36.4C198.6,155,191.4,147.9,180.9,147.9z M185.4,204.2
			c0,6.4-3.4,7.1-6.1,7.1h-2.7v-50.6h2.7c2.9,0,6.1,0.9,6.1,7.2V204.2z"/>
		<polygon points="219,147.9 205.6,147.9 205.6,224.1 233.5,224.1 233.5,211.2 219,211.2 		"/>
		<polygon points="268.7,160.9 268.7,147.9 239,147.9 239,224.1 268.7,224.1 268.7,211.2 252.3,211.2 252.3,191.2 264.8,191.2 
			264.8,179.5 252.3,179.5 252.3,160.9 		"/>
		<path d="M86.4,147.9l-13.7,76.1h13.4l2.3-12.9h12l2.1,12.9h13.3l-13.5-76.1H86.4z M90.3,199.8l4.3-34l4,34H90.3z"/>
		<path d="M56.4,147.9h-19V224h13.4v-18.5h5.6c10.4,0,17.6-6.8,17.6-19.6v-18C74,155,66.7,147.9,56.4,147.9z M60.9,185.7
			c0,6.5-3.6,7.2-6.3,7.2h-3.9v-32.1h3.9c2.9,0,6.3,0.9,6.3,7.2V185.7z"/>
	</g>
</g>
<path d="M793.9,129.1c0.1-0.6,0.3-1.1,0.3-1.7c0-11.5,0-23,0-34.6c1.4-6.7,0.5-13.4,0.6-20.1c0.2-6.7,0.1-13.4,0.1-20.2
	c0-11.6,0-23.1,0-34.7c0-13,0-25.9,0.1-38.9c0-2,0.1-3.9,0.1-5.9c0-0.9,1-1.9,1.9-1.9c3.2,0,6.6-0.4,9.7,0.1
	c6.6,1.1,13.3,0.4,19.9,0.5c18.5,0.2,37,0.1,55.4,0.1c12.5,0,25,0,37.4,0.1c12.6,0,25.3,0.1,37.9,0.2c6.4,1.4,12.9,0.5,19.4,0.6
	c6.5,0.2,13,0,19.4,0c2.4,0,4.7,0.1,7.1,0.1c22.5,0,45,0,67.6,0.1c12.5,0,25,0.1,37.6,0.2c0.5,0,1.1,0.4,1.6,0.5
	c0.6,0.1,1.3,0.2,1.9,0.2c5.2,0,10.4,0,15.6,0c13.1,0,26.2,0,39.4,0.1c1.7,0,1.8,0.1,1.8,1.7c0,3.2,0,6.4,0,9.6
	c0,1.6-0.9,2.5-2.4,2.5c-1.2,0-2.3,0-3.5,0c-0.7,0-1.4,0.2-1.8-0.7c-0.1-0.1-0.4-0.1-0.5-0.2c-0.3,0-0.6,0-0.8,0
	c-25,0-50.1,0-75.1-0.1c-13.5,0-27,0-40.4-0.1c-12.8,0-25.7,0.4-38.5-0.4c-13.4-0.8-26.8-0.2-40.2-0.4c-13.4-0.2-26.8-0.1-40.2-0.1
	c-12.8,0-25.6,0-38.4-0.1c-13.2,0-26.3-0.1-39.5-0.2c-6.1-1.4-12.2-0.5-18.3-0.6c-6.1-0.2-12.2,0-18.4,0c-0.5,0-1,0-1.6,0
	c-0.1,0.7-0.1,1.3-0.1,1.9c-0.1,19.8-0.2,39.7-0.2,59.5c0,1.5,0.1,3.1,0,4.6c-1.2,13.2-0.4,26.4-0.6,39.5
	c-0.1,13.2-0.1,26.5-0.1,39.7c0,12,0,23.9-0.1,35.9c0,5.1-0.2,10.2-0.2,15.3c0,1.7,0.1,1.8,1.8,1.8c7.5,0,15,0,22.6,0
	c0.7,0,1.5-0.3,2.1,0.6c0.1,0.1,0.4,0.1,0.7,0.1c0.4,0,0.8,0,1.2,0c22.9,0,45.8,0,68.8,0.1c13.8,0,27.6,0,41.4,0.1
	c12.4,0,24.8,0.1,37.2,0.1c0.6,0,1.2,0.3,1.7,0.5c0.3,0.1,0.7,0.2,1,0.2c0.4,0,0.7,0,1.1,0c24.2,0,48.3,0,72.5,0.1
	c12.7,0,25.4,0,38,0.1c12.2,0,24.5,0.1,36.7,0.1c0.5,0,1.1,0.4,1.6,0.5c0.2,0.1,0.4,0.2,0.7,0.2c5.4,0,10.8,0,16.3,0
	c0.1-0.8,0.3-1.6,0.3-2.4c0-3.4-0.4-6.8,0.1-10.1c1.2-8.5,0.3-16.9,0.5-25.4c0.2-8.6,0.1-17.1,0.1-25.7c0-8.5,0-17,0-25.6
	c0-3.8,0-7.7,0.1-11.5c0-0.4,0-0.8,0.1-1.3c4.6,0,9.2,0,13.9,0c0,0.4,0.1,0.8,0.1,1.3c0,3.8,0,7.6,0,11.4
	c-0.1,12.2,0.4,24.5-0.4,36.7c-0.7,10.8-0.3,21.5-0.5,32.3c-0.2,10.8-0.1,21.5-0.1,32.3c0,0.3,0,0.6-0.1,1.1c-0.5,0-1,0-1.4,0
	c-22.3,0-44.6,0-66.8-0.1c-10.8,0-21.6,0-32.4-0.1c-14.2,0-28.4-0.1-42.6-0.1c-0.5,0-1.1-0.4-1.6-0.5c-0.3-0.1-0.5-0.2-0.8-0.2
	c-0.4,0-0.9,0-1.3,0c-20.8,0-41.7,0-62.5,0c-15.9,0-31.8,0-47.6,0c-12.3,0-24.6,0-37-0.1c-0.6,0-1.2-0.4-1.8-0.6
	c-0.4-0.1-0.8-0.2-1.2-0.2c-0.3,0-0.6,0-0.8,0c-24.9,0-49.8,0-74.6-0.1c-0.2,0-0.3,0-0.5,0.1C793.9,174.4,793.9,151.8,793.9,129.1z"
	/>
<path d="M924.1,9.1c14.6,0,29.2,0,43.7,0c0.1,0.1,0.1,0.2,0.2,0.3c-0.5,0.6-1,1.1-1.5,1.7c-0.1,0.2-0.4,0.3-0.4,0.5
	c-0.1,1.2-1.1,1.7-1.8,2.4c-0.5,0.6-0.9,1.3-1.3,2c-0.5,0.7-1.2,1.3-1.7,2c-0.8,1-1.5,2.1-2.3,3.1c-0.5,0.7-1.1,1.3-1.6,1.9
	c-0.8,1-1.6,1.9-2.2,2.9c-0.5,0.8-1,1.6-1.8,2.2c-0.5,0.4-0.8,1.1-1.2,1.6c-0.6,0.8-1.2,1.5-1.8,2.2c-0.3,0.4-0.7,0.7-0.8,1.1
	c-0.4,0.8-1.3,1.2-1.5,2.2c-0.1,0.6-0.9,1.1-1.3,1.7c-0.9,1.1-1.8,2.2-2.6,3.3c-0.4,0.5-0.6,1.1-1,1.5c-0.5,0.5-1.1,0.8-1.6,1.4
	c-0.5,0.6-0.8,1.4-1.3,2c-0.5,0.7-1.2,1.3-1.8,2c-0.4,0.5-0.9,0.9-1.1,1.5c-0.4,1.1-1.1,1.9-2,2.6c-0.6,0.5-0.8,1.3-1.3,2
	c-0.5,0.7-1.1,1.3-1.7,1.9c-0.4,0.5-0.8,1.1-1.2,1.6c-0.6,0.8-1.2,1.5-1.8,2.3c-1.1,1.5-2.2,3.1-3.4,4.6c-0.4,0.6-1.1,1-1.5,1.5
	c-0.5,0.5-0.8,1.2-1.3,1.8c-0.6,0.7-1.2,1.4-1.7,2.2c-0.8,1.1-1.6,2.2-2.4,3.3c-0.4,0.5-0.8,1.1-1.2,1.6c-0.3,0.4-0.5,0.7-0.9,1
	c-0.9,0.8-1.5,1.6-2,2.7c-0.5,1-1.6,1.6-2.4,2.5c-0.1,0.1-0.3,0.2-0.3,0.3c-0.1,1.3-1,1.9-1.8,2.7c-0.4,0.3-0.3,1.1-1.1,1.1
	c0,0.2,0,0.5,0.1,0.7c0.6,0.9,1.2,1.9,1.9,2.7c0.4,0.5,1,1,1.6,1.4c0.4,0.4,0.8,0.7,1.1,1.1c0.5,0.7,0.9,1.5,1.4,2.2
	c0.4,0.6,1,1.1,1.5,1.7c0.8,1,1.6,2.1,2.4,3.2c0.4,0.5,0.6,1.2,1.1,1.6c1.3,1.1,2.3,2.3,3.1,3.9c0.4,1,1.6,1.6,2.4,2.5
	c0.4,0.5,0.9,0.9,1.2,1.5c0.7,1.5,1.9,2.5,3,3.6c0.6,0.6,0.8,1.5,1.3,2.2c0.5,0.6,1.1,1.1,1.6,1.6c0.4,0.5,0.9,1,1.2,1.6
	c0.7,1.4,1.7,2.5,2.9,3.5c0.6,0.5,0.8,1.3,1.2,2c0.4,0.6,0.8,1.2,1.3,1.8c0.5,0.6,1,1.4,1.7,1.8c1.3,0.8,1.3,2.5,2.7,3.4
	c1.1,0.7,1.6,2.3,2.4,3.4c0.3,0.4,0.6,0.9,1,1.3c0.8,0.8,1.7,1.6,2.5,2.4c0.5,0.6,1,1.3,1.4,2c0.4,0.6,0.7,1.2,1.2,1.7
	c0.8,0.8,1.7,1.4,1.9,2.6c0.1,0.4,0.6,0.8,1,1.2c0.8,0.9,1.7,1.7,2.4,2.6c0.6,0.7,1,1.5,1.5,2.2c0.3,0.5,0.7,1.1,1.1,1.4
	c0.9,0.6,1.5,1.4,1.9,2.5c0.2,0.5,0.6,1.1,1.1,1.4c0.9,0.7,1.5,1.5,2,2.6c0.5,1,1.5,1.7,2.2,2.5c0.5,0.5,1,1,1.4,1.6
	c0.8,1.1,1.5,2.2,2.3,3.3c0.2,0.2,0.7,0.3,0.8,0.5c0.1,0.7,0.1,1.4-1,1.4c-2.6,0-5.3,0.5-7.8-0.1c-5.6-1.3-11.2-0.4-16.8-0.6
	c-5.7-0.2-11.4,0-17,0c-2.3,0-2.7-0.3-3.5-2.4c-0.2-0.6-0.7-1.1-1.1-1.5c-0.5-0.5-1.1-1-1.6-1.5c-0.4-0.5-0.7-1.1-1-1.6
	c-0.4-0.5-0.7-1.1-1.1-1.6c-0.6-0.8-1.2-1.5-1.8-2.2c-0.4-0.6-0.8-1.2-1.3-1.8c-0.3-0.3-0.6-0.5-0.9-0.8c-1.1-1.1-1.4-2.7-2.8-3.5
	c-0.5-0.3-0.9-0.9-1.1-1.5c-0.5-1.5-1.8-2.4-2.8-3.5c-0.4-0.4-0.8-0.9-1-1.4c-0.5-1.1-1.2-1.9-2.1-2.7c-0.6-0.5-0.8-1.6-1.3-2.3
	c-0.4-0.6-1-1-1.5-1.5c-0.4-0.5-1-0.9-1.2-1.5c-0.5-1-1.2-1.8-2-2.6c-0.9-1-1.5-2.4-2.3-3.5c-0.3-0.4-0.6-0.9-1-1.2
	c-1.5-0.9-2-2.6-3-3.9c-0.4-0.5-1.1-0.9-1.6-1.3c-0.1-0.1-0.2-0.3-0.2-0.5c-0.2-1.1-1.1-1.7-1.8-2.5c-0.9-0.9-1.5-2.1-2.3-3.1
	c-0.5-0.6-1.1-1.2-1.6-1.9c-0.4-0.5-1-0.9-1.2-1.4c-0.5-1.7-1.9-2.6-3-3.8c-0.6-0.7-0.8-1.6-1.3-2.3c-0.3-0.5-0.6-1-1.1-1.3
	c-1.3-0.8-1.8-2.2-2.4-3.5c-0.2-0.3-0.2-0.8-0.2-1.1c0-9.4,0-18.7,0-28.1c0-1.1,0.7-1.8,1.4-2.5c0.4-0.4,0.9-0.8,1.1-1.3
	c0.4-1.2,1.1-1.9,2-2.7c0.6-0.5,0.8-1.4,1.2-2.1c0.5-0.7,1.1-1.2,1.7-1.8c0.4-0.4,0.8-0.8,1.1-1.3c0.5-0.8,0.8-1.6,1.2-2.3
	c0.3-0.5,0.7-0.8,1.1-1.3c0.6-0.8,1.3-1.6,1.9-2.4c0.3-0.4,0.7-0.9,1-1.3c0.5-0.7,1.1-1.4,1.7-2.1c0.5-0.6,0.9-1.3,1.3-1.9
	c0.3-0.4,0.6-0.8,0.9-1.1c0.9-1.1,1.9-2.2,2.8-3.3c0.5-0.7,0.8-1.5,1.3-2.2c0.3-0.5,0.7-0.9,1-1.3c0.9-1.1,2.1-2.1,2.8-3.4
	c0.6-1.2,2.2-1.8,2.3-3.4c0-0.4,0.6-1,1-1.2c1.5-1,2.1-2.6,3-4c0.4-0.6,1-0.9,1.6-1.4c0.1-0.1,0.2-0.3,0.2-0.4
	c0.1-1.2,1.1-1.7,1.8-2.5c0.5-0.6,0.9-1.3,1.3-2c0.5-0.7,1.2-1.3,1.7-2c0.8-1.1,1.5-2.3,2.4-3.4c0.4-0.6,1-1.1,1.5-1.6
	c0.4-0.5,0.9-0.9,1.1-1.5c0.4-1.1,1-2,2.1-2.6C924,9.8,924,9.4,924.1,9.1z"/>
<path d="M829.1,113.7c0-15.8,0-31.7,0-47.5c0-12.6,0.1-25.1,0.2-37.7c1.3-6.3,0.3-12.8,0.6-19.1c0-1,0.3-1.4,1.4-1.4
	c7,0.1,14.1,0,21.1,0c3.8,0,7.6,0.1,11.4,0.2c1.4,0,2.1,0.7,2.1,2.2c0,7.2,0,14.4,0,21.6c0,12.4-0.1,24.9-0.1,37.3
	c0,0.6-0.3,1.1-0.4,1.7c-0.1,0.7-0.3,1.5-0.3,2.2c0,19.3,0,38.6-0.1,58c0,10.3,0,20.6-0.1,30.8c0,1.9,0,1.9-1.9,1.9
	c-10.8,0-21.5-0.1-32.3-0.1c-1.6,0-1.8-0.2-1.8-1.8c0-9.9,0-19.8,0-29.6C829,126.1,829,119.9,829.1,113.7
	C829,113.7,829,113.7,829.1,113.7z"/>
<path d="M1017.9,36.2c0,1.9,0.3,3.9-0.2,5.7c-1.2,4.2-0.4,8.4-0.6,12.7c-0.2,4.3-0.1,8.6-0.1,12.8c0,0.2,0,0.5,0,0.7
	c0.1,0.4,0.2,0.7,0.3,1.1c0.3-0.2,0.6-0.5,0.8-0.7c0.9-0.8,1.7-1.6,2.6-2.4c0.4-0.3,0.7-0.7,1-1c0.8-1,2.2-1.3,2.7-2.1
	c0.7-1,2.2-0.4,2.6-1.6c0-0.1,0.6-0.1,0.9-0.2c0.4-0.2,0.8-0.5,1.2-0.6c0.4-0.2,0.8-0.2,1.2-0.3c1-0.2,1.9-0.1,3-0.7
	c1-0.6,2.6-0.2,4-0.1c0.5,0,0.8,2.1,0.3,2.4c-0.7,0.5-0.6,1-0.6,1.6c0,6.9,0,13.8,0,20.6c0,0.6-0.1,1.3-0.1,2.1c-2.9,0-5.7,0-8.5,0
	c-0.6,0-1.2,0.4-1.8,0.6c-0.8,0.2-1.6,0.2-2.3,0.4c-1.2,0.4-2.4,0.7-3.4,1.3c-0.7,0.5-1.8,0.6-2.2,1.7c-0.1,0.4-0.5,0.7-0.7,1.1
	c-0.6,1-1.1,2.1-1.3,3.4c0,0.3-1,0.5-1.6,0.5c-3,0-6,0-9,0c-2.8,0-5.5,0-8.3,0c-3.8-0.1-7.7-0.2-11.5-0.2c-1.2,0-1.4-0.7-1.4-1.6
	c0-6,0-12.1,0-18.1c0-12.5,0-25,0.1-37.6c0-8.7,0.1-17.3,0.2-26c0-1.7,0.7-2.3,2.3-2.3c5.4,0,10.8,0,16.2,0c12.5,0,25,0.1,37.6,0.2
	c0.5,0,1.1,0.4,1.6,0.5c0.4,0.1,0.8,0.2,1.3,0.2c7.4,0,14.7,0,22.1,0c9.6,0,19.1,0,28.7,0.1c1.7,0,1.7,0.1,1.8,1.8
	c0,0.4,0,0.9,0,1.3c-0.2,3.7-0.5,7.5-0.6,11.2c-0.1,3.8,0,7.6,0,11.4c0,0.4-0.1,0.7-0.1,1c-0.1,0.1-0.2,0.2-0.3,0.2
	c-5,0-9.9,0-14.9,0c-0.5,0-1,0-1.4,0c-11.5,0-23,0-34.6,0c-0.7,0-1.5,0.3-1.9-0.7c-0.1-0.1-0.4-0.1-0.7-0.1c-8,0-16,0-24,0
	c0,0-0.1,0-0.1,0C1018.1,36.1,1018,36.2,1017.9,36.2z"/>
<path d="M1050,137c1,0,1.9,0.1,2.8,0c1.8-0.3,3.7-0.4,5.3-1.1c1-0.5,2.6-0.3,3.2-1.7c0-0.1,0.3-0.1,0.4-0.1c1.2-0.1,1.7-0.9,2.4-1.7
	c0.4-0.4,0.8-1,1.2-1.3c0.7-0.5,0.7-1.1,0.9-1.8c0.1-0.4,0.4-0.8,0.6-1.2c0.1-0.3,0.3-0.6,0.3-1c0.1-1.2,0.1-2.5,0.2-3.7
	c0.1-0.8-0.2-1.8,0.7-2.4c0.1-0.1,0.1-0.5,0.1-0.8c0-5.8,0-11.6,0-17.4c0-0.2,0.1-0.4,0-0.5c-1.4-1.3-0.7-3.1-0.9-4.7
	c-0.2-1.8-0.9-3.3-1.7-4.9c-0.4-0.8-0.9-1.6-1.4-2.3c-0.4-0.6-1.1-0.9-1.7-1.3c-1-0.6-2.1-1.2-3.2-1.8c-0.4-0.2-1-0.2-1.5-0.3
	c-0.9-0.2-1.9,0.2-2.6-0.8c-0.1-0.2-0.6-0.1-0.9-0.1c-1.3,0-2.5,0-4,0c0-0.6,0-1,0-1.4c0-8.2,0-16.5,0-24.7c0-1.8,0-1.8,1.8-1.8
	c2.6,0,5.4-0.4,7.9,0.2c3.1,0.7,6.2,0.2,9.2,0.9c1.6,0.4,3.4,0.2,4.6,1c1.3,0.7,2.6,0.4,3.7,1c1.1,0.6,2.6,0.4,3.2,1.1
	c0.8,1,2.2,0.4,2.9,1.6c0.4,0.7,1.8,0.8,2.7,1.3c0.7,0.4,1.3,1,1.9,1.5c0.5,0.4,1,0.9,1.5,1.3c0.5,0.4,1,0.7,1.5,1.1
	c1,0.7,1.7,1.5,2.3,2.7c0.5,1,1.5,1.7,2.1,2.7c0.7,1,0.9,2.3,1.7,3.1c0.9,1,0.5,2.4,1.2,3.1c0.7,0.8,0.4,1.8,0.9,2.4
	c1.2,1.3,0.4,3.2,1.6,4.6c0.6,0.7,0.2,2.1,0.4,3.2c0.1,0.6,0.4,1.2,0.5,1.7c0.1,0.5,0.3,1,0.3,1.5c0.1,1.3,0,2.6,0.1,3.8
	c0.2,2.2,0.5,4.4,0.6,6.6c0.1,2.1,0.2,4.2,0.2,6.3c0,3.4,0.3,6.9-0.3,10.3c-0.5,2.9,0,5.9-0.8,8.6c-0.5,1.9-0.4,3.9-1.1,5.6
	c-0.5,1.2-0.5,2.4-0.9,3.5c-0.4,1.1-0.4,2.4-1,3.1c-0.8,0.9-0.6,1.8-0.9,2.6c-0.4,0.9-0.9,1.6-1.4,2.4c-0.5,0.9-1,1.9-1.6,2.8
	c-0.3,0.5-0.7,1-1.1,1.4c-1.3,1.3-2.4,2.8-3.9,3.9c-1.1,0.8-2,2-3.5,2.5c-1.4,0.5-2.5,1.7-3.8,2.5c-1.1,0.6-2.3,0.8-3.4,1.2
	c-0.4,0.2-0.8,0.5-1.2,0.7c-0.1,0.1-0.2,0.2-0.3,0.2c-1.6,0.4-3.2,0.7-4.9,1.1c-0.7,0.2-1.3,0.5-2,0.7c-0.3,0.1-0.6,0.1-0.9,0.2
	c-1.6,0.2-3.2-0.1-4.7,0.8c-0.7,0.4-1.8,0.2-2.7,0.3c-1.1,0.1-2.2,0-3.4,0.1c-1.2,0.1-2.3,0.6-3.5,0.7c-1.7,0.2-3.3,0.2-5,0.2
	c-0.9,0-1.5-0.3-1.4-1.4c0.1-1.4,0-2.8,0-4.2c0-0.4,0.3-0.8,0.5-1.2c0.1-0.4,0.3-0.8,0.3-1.2c0-6.4,0-12.9,0-19.3
	C1050,138.2,1050,137.7,1050,137z"/>
<path d="M999.1,119.2c5.1,0,10.2,0,15.2,0c1.2,0,1.6,0.4,1.7,1.5c0.3,2.5,0.5,5.1,1.3,7.4c0.3,1,0.4,2.3,1.5,3.1
	c0.5,0.3,0.3,1.3,1.1,1.9c0.5,0.4,1,0.7,1.5,0.9c1,0.5,1.8,1.1,2.7,1.7c0.1,0.1,0.3,0.2,0.4,0.2c2.4,0.4,4.9,0.8,7.3,1
	c1.3,0.1,2.7,0.1,4.1,0.1c0.7,0,1,0.3,1,0.9c0,0.4,0,0.7,0,1.1c0,8.5,0,17,0,25.6c0,1.2-0.4,1.5-1.5,1.5c-3.8-0.1-7.7,0.2-11.3-0.4
	c-2.7-0.5-5.4,0-7.9-0.9c-1.8-0.6-3.6-0.4-5.2-1c-1.2-0.4-2.5-0.4-3.4-0.9c-1.1-0.6-2.4-0.4-3.2-1c-1.7-1.2-3.9-1.2-5.4-2.7
	c-0.7-0.7-1.8-0.8-2.6-1.3c-0.6-0.4-0.9-1-1.4-1.5c-0.4-0.4-0.8-0.7-1.2-1.1c-1.2-0.8-2.1-1.8-3-3c-0.6-0.9-1.6-1.6-2.5-2.4
	c-0.1-0.1-0.1-0.2-0.1-0.3c0-1.2-1.2-1.7-1.6-2.7c-0.5-1.1-1.1-2.1-1.5-3.2c-0.2-0.5,0.1-1.3-0.8-1.5c-0.1,0-0.1-0.4-0.2-0.6
	c-0.2-0.9,0.3-2-0.9-2.5c-0.1,0-0.1-0.2-0.1-0.3c-0.5-3.5-1.4-7-1.1-10.6c0.1-1.2,0.1-2.4-0.6-3.7c-0.5-1-0.4-2.6,0-3.8
	c0.2-0.7,0.9-1.5,2.1-1.5C988.7,119.2,993.9,119.2,999.1,119.2z"/>
<path d="M1167.8,18.5c0,1.3-0.2,2.7,0,4c0.4,2.8-0.6,5.4-1.2,8c-0.3,1.7-1.6,3.3-3.1,4.6c-1,0.8-1.9,1.7-2.8,2.5
	c-0.1,0.1-0.1,0.1-0.2,0.2c-1,0.4-2,0.8-3,1.2c-0.9,0.4-1.8,0.9-2.7,1.2c-0.7,0.3-1.4,0.5-2.1,0.7c-0.6,0.2-1.2,0.5-1.9,0.8
	c-0.1,0-0.2,0.1-0.3,0.2c-1.4,0.4-2.7,0.7-4.1,1.1c-0.7,0.2-1.4,0.7-2.2,0.8c-0.9,0.2-1.2-0.3-1.1-1.1c0-4.1,0-8.2,0-12.4
	c0-1.3,0.8-2,2-2.3c1.4-0.4,2.9-0.7,4.1-1.7c0.6-0.5,1.4-0.7,2-1.2c0.3-0.3,0.6-0.8,0.7-1.2c0.2-1.2,0.3-2.4,0.6-3.6
	c0.5-1.7,1-3.8-0.4-5.5c-0.1-0.1-0.2-0.4-0.2-0.5c0.1-1.3-0.9-1.7-1.6-2.5c-1.3-1.4-2.9-0.9-4.4-1c-0.1,0-0.2,0-0.4,0
	c-0.8-0.2-2.3-0.3-2.3-0.6c-0.2-1.1-0.7-2.4,0.4-3.5c0.3-0.3,0.3-0.9,0.3-1.3c0-2.3,0-4.6,0-7c0-1,0.3-1.4,1.4-1.4
	c3.1,0.1,6.2,0,9.4,0.1c0.5,0,0.9,0.4,1.4,0.6c0.2,0.1,0.4,0.2,0.6,0.3c1.2,0.4,2.6,0.6,3.7,1.2c1,0.5,1.7,1.4,2.5,2.2
	c0.9,0.9,1.8,1.9,2.7,2.9c0.2,0.2,0.1,0.5,0.2,0.8c0.2,0.4,0.4,0.7,0.6,1.1c0.2,0.4,0.4,0.8,0.4,1.2c0.2,1.1-0.1,2.2,0.8,3.2
	c0.2,0.2,0.1,0.8,0.1,1.2C1167.8,13.9,1167.8,16.2,1167.8,18.5z"/>
<path d="M1135.8,31.4c0,0.3,0.1,0.6,0.1,1c0,4.4,0,8.8,0,13.2c0,0.8-0.5,1-1,1.4c-1.1,0.9-2.5,0.6-3.5,1.1c-1.2,0.7-2.6,1.7-2.5,3.7
	c0.1,2.4,0.1,4.8,0,7.2c0,0.8,0.3,1.1,1.1,1.1c1.5,0,3,0,4.6,0c0.9,0,1.3,0.2,1.3,1.2c0,4.1,0,8.2,0,12.4c0,0.9-0.3,1.2-1.2,1.2
	c-6.4,0-12.9,0-19.3,0c-1.1,0-1.3-0.4-1.3-1.4c0-3,0-5.9,0-8.9c0-6.3,0-12.6,0.1-18.8c0-0.6,0.4-1.2,0.7-1.8
	c0.1-0.2,0.1-0.4,0.2-0.5c0.4-0.8,0.7-1.7,1.3-2.3c1.2-1.3,2.6-2.6,4-3.7c0.8-0.6,2-0.9,2.9-1.4c1-0.5,2-1.1,3-1.7
	c0.1,0,0.1-0.1,0.2-0.1c1.3-0.4,2.7-0.7,4-1.1c0.6-0.2,1.2-0.5,1.8-0.8c0.2-0.1,0.3-0.2,0.5-0.2
	C1133.7,31.9,1134.6,31.7,1135.8,31.4z"/>
<path d="M972.6,94.3c-0.2,0.8-0.5,1.3-0.5,1.9c0,7.1,0,14.2,0,21.3c0,0.5,0,0.9,0,1.4c-8.4,0-16.6,0-25,0c0-8.6,0-17.1,0-25.8
	c1.1,0,2.2,0,3.2,0c6.1,0,12.1,0.1,18.2,0.2C970,93.3,971.6,92.8,972.6,94.3z"/>
<path d="M1122.4,20c-2,0-4.1,0-6.1,0c-0.9,0-1.2-0.2-1.2-1.2c0.1-3.1,0-6.2,0.1-9.3c0-0.5,0.4-1.1,0.6-1.6c0.1-0.1,0.2-0.3,0.2-0.4
	c-0.3-1.5,0.8-2.5,1.3-3.7c0.5-1,1.5-1.7,2.2-2.6c0.4-0.4,0.7-0.8,1.2-1.1c0.9-0.6,1.7-1.2,2.6-1.8c0.3-0.2,0.7-0.1,1-0.2
	c0.6-0.2,1.2-0.5,1.8-0.7c0.3-0.1,0.6-0.2,0.9-0.2c2.5,0,5,0,7.5-0.1c1,0,1.3,0.4,1.3,1.3c0,3.8-0.1,7.5-0.1,11.3
	c0,0.8-0.3,1.2-1.1,1.2c-0.4,0-0.7,0.1-1.1,0c-1.3-0.2-2,0.9-2.9,1.5c-1.2,0.8-1,2.1-1,3.2c0,0.8,0,1.6,0,2.4c0,1.9,0,1.9-2,1.9
	C1126,20,1124.2,20,1122.4,20z"/>
<path d="M1155.5,61c3.6,0,7.1,0,10.7,0c0.5,0,1.4,0.2,1.5,0.4c0.1,0.7,0,1.5-0.1,2.3c-0.1,0.5-0.4,0.9-0.4,1.4c0,2.8,0,5.7,0,8.5
	c0,0.9-0.3,1.2-1.2,1.2c-7.1-0.1-14.2-0.1-21.4,0c-1.1,0-1.4-0.4-1.4-1.4c0-3.7,0.1-7.4,0-11.2c0-1,0.4-1.3,1.3-1.3
	C1148.2,61.1,1151.9,61,1155.5,61C1155.5,61,1155.5,61,1155.5,61z"/>
<polygon points="1153,84 1153,186 809,186 809,-15 1151,-15 1153,-15 1168,-15 1168,-28 795,-28 795,199 1168,199 1168,84 "/>
</svg>
