<?xml version="1.0" encoding="UTF-8"?>
<svg id="Layer_2" data-name="Layer 2" xmlns="http://www.w3.org/2000/svg" viewBox="0 0 32 36.26">
  <defs>
    <style>
      .cls-1 {
        fill: #fff;
      }

      .cls-2 {
        fill: #5ea6d5;
      }
    </style>
  </defs>
  <g id="Layer_1-2" data-name="Layer 1">
    <g>
      <path class="cls-1" d="m1.84,0C.83,0,0,.83,0,1.84v28.21c0,1.01.83,1.84,1.84,1.84h4.76l16.1,4.31c.16.04.32.06.48.06.32,0,.63-.08.91-.24.43-.24.74-.64.86-1.12l6.98-26.06c.13-.48.06-.97-.18-1.4-.25-.42-.64-.73-1.12-.86l-7.33-1.96V1.84c0-1.01-.83-1.84-1.84-1.84H1.84Zm3.68,3.09c-.22,0-.45.1-.55.31l-1.84,3.68c-.15.3-.03.67.27.82.3.15.67.03.82-.27l.14-.28h2.31l.14.28c.11.21.33.34.55.34.09,0,.19-.02.28-.06.3-.15.42-.52.27-.82l-1.84-3.68c-.1-.21-.33-.31-.55-.31Zm0,1.95l.54,1.08h-1.08l.54-1.08Zm6.13,4.74c-.24,0-.49.09-.67.28l-3.9,3.9c-1.26,1.26-1.26,3.32,0,4.58.61.61,1.43.95,2.29.95.6,0,1.17-.17,1.67-.47v1.21h-1.23c-.34,0-.61.28-.61.61s.28.61.61.61h3.68c.34,0,.61-.28.61-.61s-.28-.61-.61-.61h-1.23v-1.21c.5.3,1.07.47,1.67.47.86,0,1.68-.34,2.29-.95,1.26-1.26,1.26-3.32,0-4.58l-3.9-3.9c-.18-.18-.43-.28-.67-.28Zm-7.36,15.96c-.34,0-.61.28-.61.61v1.23c0,.34.28.61.61.61s.61-.28.61-.61v-1.23c0-.34-.28-.61-.61-.61Zm3.07,0c-.34,0-.61.28-.61.61v1.23c0,.34.28.61.61.61s.61-.28.61-.61v-1.23c0-.34-.28-.61-.61-.61Zm3.07,0c-.34,0-.61.28-.61.61v1.23c0,.34.28.61.61.61s.61-.28.61-.61v-1.23c0-.34-.28-.61-.61-.61Zm3.07,0c-.34,0-.61.28-.61.61v1.23c0,.34.28.61.61.61s.61-.28.61-.61v-1.23c0-.34-.28-.61-.61-.61Zm3.07,0c-.34,0-.61.28-.61.61v1.23c0,.34.28.61.61.61s.61-.28.61-.61v-1.23c0-.34-.28-.61-.61-.61Zm3.07,0c-.34,0-.61.28-.61.61v1.23c0,.34.28.61.61.61s.61-.28.61-.61v-1.23c0-.34-.28-.61-.61-.61Z"/>
      <path class="cls-2" d="m1.84,0C.83,0,0,.83,0,1.84v28.21c0,1.01.83,1.84,1.84,1.84h4.76l16.1,4.31c.16.04.32.06.48.06.32,0,.63-.08.91-.24.43-.24.74-.64.86-1.12l6.98-26.06c.13-.48.06-.97-.18-1.4-.25-.42-.64-.73-1.12-.86l-7.33-1.96V1.84c0-1.01-.83-1.84-1.84-1.84H1.84Zm0,1.23h19.62c.34,0,.61.28.61.61v28.21c0,.34-.28.61-.61.61H1.84c-.34,0-.61-.28-.61-.61V1.84c0-.34.28-.61.61-.61Zm21.46,4.66l7.01,1.89c.16.04.3.14.38.28.08.14.1.31.06.47l-6.98,26.06c-.04.16-.14.29-.29.37-.14.08-.3.1-.46.06l-11.66-3.13h10.11c1.01,0,1.84-.83,1.84-1.84V5.89Z"/>
    </g>
  </g>
</svg>